<?xml version="1.0" encoding="UTF-8" standalone="no"?>
<!-- Created with Inkscape (http://www.inkscape.org/) -->

<svg
   xmlns:dc="http://purl.org/dc/elements/1.1/"
   xmlns:cc="http://creativecommons.org/ns#"
   xmlns:rdf="http://www.w3.org/1999/02/22-rdf-syntax-ns#"
   xmlns:svg="http://www.w3.org/2000/svg"
   xmlns="http://www.w3.org/2000/svg"
   xmlns:sodipodi="http://sodipodi.sourceforge.net/DTD/sodipodi-0.dtd"
   xmlns:inkscape="http://www.inkscape.org/namespaces/inkscape"
   width="48px"
   height="48px"
   id="svg2985"
   version="1.1"
   inkscape:version="0.48.2 r9819"
   sodipodi:docname="ic_menu_calendarpicker.svg"
   inkscape:export-filename="E:\My Documents\Programming\Google Code-In\icon\ic_menu_calendarpicker_holo_light\ldpi\ic_menu_calendarpicker.png"
   inkscape:export-xdpi="33.75"
   inkscape:export-ydpi="33.75">
  <defs
     id="defs2987" />
  <sodipodi:namedview
     id="base"
     pagecolor="#ffffff"
     bordercolor="#666666"
     borderopacity="1.0"
     inkscape:pageopacity="0.0"
     inkscape:pageshadow="2"
     inkscape:zoom="2.9176938"
     inkscape:cx="24"
     inkscape:cy="22.234839"
     inkscape:current-layer="layer1"
     showgrid="true"
     inkscape:grid-bbox="true"
     inkscape:document-units="px"
     inkscape:window-width="1024"
     inkscape:window-height="706"
     inkscape:window-x="-8"
     inkscape:window-y="-8"
     inkscape:window-maximized="1" />
  <metadata
     id="metadata2990">
    <rdf:RDF>
      <cc:Work
         rdf:about="">
        <dc:format>image/svg+xml</dc:format>
        <dc:type
           rdf:resource="http://purl.org/dc/dcmitype/StillImage" />
        <dc:title></dc:title>
      </cc:Work>
    </rdf:RDF>
  </metadata>
  <g
     id="layer1"
     inkscape:label="Layer 1"
     inkscape:groupmode="layer">
    <path
       style="opacity:0.6;fill:#333333;fill-opacity:1;fill-rule:evenodd"
       d="M 10.5625 5 C 7.4839219 5 5 7.4839219 5 10.5625 L 5 37.4375 C 5 40.516078 7.4839219 43 10.5625 43 L 37.4375 43 C 40.516078 43 43 40.516078 43 37.4375 L 43 10.5625 C 43 7.4839219 40.516078 5 37.4375 5 L 35.625 5 C 35.690123 5.7851782 35.71875 6.6357359 35.71875 7.59375 L 35.71875 8.4375 C 35.71875 11.516078 35.317254 14 34.84375 14 C 34.370246 14 34 11.516078 34 8.4375 L 34 7.59375 C 34 6.6357359 34.028627 5.7851782 34.09375 5 L 24.625 5 C 24.690123 5.7851782 24.71875 6.6357359 24.71875 7.59375 L 24.71875 8.4375 C 24.71875 11.516078 24.317254 14 23.84375 14 C 23.370246 14 23 11.516078 23 8.4375 L 23 7.59375 C 23 6.6357359 23.028627 5.7851782 23.09375 5 L 13.625 5 C 13.690123 5.7851782 13.71875 6.6357359 13.71875 7.59375 L 13.71875 8.4375 C 13.71875 11.516078 13.317254 14 12.84375 14 C 12.370246 14 12 11.516078 12 8.4375 L 12 7.59375 C 12 6.6357359 12.028627 5.7851782 12.09375 5 L 10.5625 5 z M 6.5 16 L 10.5 16 L 10.5 20 L 6.5 20 L 6.5 16 z M 11.5 16 L 15.5 16 L 15.5 20 L 11.5 20 L 11.5 16 z M 16.5 16 L 20.5 16 L 20.5 20 L 16.5 20 L 16.5 16 z M 21.5 16 L 25.5 16 L 25.5 20 L 21.5 20 L 21.5 16 z M 26.5 16 L 30.5 16 L 30.5 20 L 26.5 20 L 26.5 16 z M 31.5 16 L 35.5 16 L 35.5 20 L 31.5 20 L 31.5 16 z M 36.5 16 L 40.5 16 L 40.5 20 L 36.5 20 L 36.5 16 z M 6.5 21 L 10.5 21 L 10.5 25 L 6.5 25 L 6.5 21 z M 11.5 21 L 15.5 21 L 15.5 25 L 11.5 25 L 11.5 21 z M 16.5 21 L 20.5 21 L 20.5 25 L 16.5 25 L 16.5 21 z M 21.5 21 L 25.5 21 L 25.5 25 L 21.5 25 L 21.5 21 z M 26.5 21 L 30.5 21 L 30.5 25 L 26.5 25 L 26.5 21 z M 31.5 21 L 35.5 21 L 35.5 25 L 31.5 25 L 31.5 21 z M 36.5 21 L 40.5 21 L 40.5 25 L 36.5 25 L 36.5 21 z M 6.5 26 L 10.5 26 L 10.5 30 L 6.5 30 L 6.5 26 z M 11.5 26 L 15.5 26 L 15.5 30 L 11.5 30 L 11.5 26 z M 16.5 26 L 20.5 26 L 20.5 30 L 16.5 30 L 16.5 26 z M 21.5 26 L 25.5 26 L 25.5 30 L 21.5 30 L 21.5 26 z M 26.5 26 L 30.5 26 L 30.5 30 L 26.5 30 L 26.5 26 z M 31.5 26 L 35.5 26 L 35.5 30 L 31.5 30 L 31.5 26 z M 36.5 26 L 40.5 26 L 40.5 30 L 36.5 30 L 36.5 26 z M 6.5 31 L 10.5 31 L 10.5 35 L 6.5 35 L 6.5 31 z M 11.5 31 L 15.5 31 L 15.5 35 L 11.5 35 L 11.5 31 z M 16.5 31 L 20.5 31 L 20.5 35 L 16.5 35 L 16.5 31 z M 21.5 31 L 25.5 31 L 25.5 35 L 21.5 35 L 21.5 31 z M 26.5 31 L 30.5 31 L 30.5 35 L 26.5 35 L 26.5 31 z M 31.5 31 L 35.5 31 L 35.5 35 L 31.5 35 L 31.5 31 z M 36.5 31 L 40.5 31 L 40.5 35 L 36.5 35 L 36.5 31 z "
       id="rect2991" />
    <rect
       y="21"
       x="16.5"
       height="4"
       width="4"
       id="rect3078"
       style="opacity:0.6;fill:#333333;fill-opacity:1;fill-rule:evenodd" />
  </g>
</svg>
