<?xml version="1.0" encoding="UTF-8" standalone="no"?>
<!-- Created with Inkscape (http://www.inkscape.org/) -->
<svg
   xmlns:dc="http://purl.org/dc/elements/1.1/"
   xmlns:cc="http://creativecommons.org/ns#"
   xmlns:rdf="http://www.w3.org/1999/02/22-rdf-syntax-ns#"
   xmlns:svg="http://www.w3.org/2000/svg"
   xmlns="http://www.w3.org/2000/svg"
   xmlns:sodipodi="http://sodipodi.sourceforge.net/DTD/sodipodi-0.dtd"
   xmlns:inkscape="http://www.inkscape.org/namespaces/inkscape"
   width="18"
   height="18"
   id="svg2"
   sodipodi:version="0.32"
   inkscape:version="0.46"
   version="1.0"
   sodipodi:docname="ic_menu_camera_flash.svg"
   inkscape:output_extension="org.inkscape.output.svg.inkscape"
   inkscape:export-filename="C:\Documents and Settings\abc\Pulpit\ic_menu_camera_flash\holo_dark\xhdpi\ic_menu_camera_flash.png"
   inkscape:export-xdpi="240"
   inkscape:export-ydpi="240">
  <defs
     id="defs4">
    <inkscape:perspective
       sodipodi:type="inkscape:persp3d"
       inkscape:vp_x="0 : 526.18109 : 1"
       inkscape:vp_y="0 : 1000 : 0"
       inkscape:vp_z="744.09448 : 526.18109 : 1"
       inkscape:persp3d-origin="372.04724 : 350.78739 : 1"
       id="perspective10" />
  </defs>
  <sodipodi:namedview
     id="base"
     pagecolor="#ffffff"
     bordercolor="#666666"
     borderopacity="1.0"
     gridtolerance="10000"
     guidetolerance="10"
     objecttolerance="10"
     inkscape:pageopacity="0.0"
     inkscape:pageshadow="2"
     inkscape:zoom="22.627417"
     inkscape:cx="9.1852409"
     inkscape:cy="8.5046499"
     inkscape:document-units="px"
     inkscape:current-layer="layer1"
     showgrid="true"
     inkscape:snap-global="false"
     inkscape:window-width="1280"
     inkscape:window-height="968"
     inkscape:window-x="0"
     inkscape:window-y="22">
    <inkscape:grid
       type="xygrid"
       id="grid2383"
       visible="true"
       enabled="true" />
  </sodipodi:namedview>
  <metadata
     id="metadata7">
    <rdf:RDF>
      <cc:Work
         rdf:about="">
        <dc:format>image/svg+xml</dc:format>
        <dc:type
           rdf:resource="http://purl.org/dc/dcmitype/StillImage" />
      </cc:Work>
    </rdf:RDF>
  </metadata>
  <g
     inkscape:label="Layer 1"
     inkscape:groupmode="layer"
     id="layer1">
    <path
       style="opacity:0.8;fill:#ffffff;fill-opacity:1;stroke:none;stroke-width:2;stroke-linecap:butt;stroke-linejoin:miter;stroke-miterlimit:4;stroke-opacity:1"
       d="M 7.5625,3.0056311 L 7.28125,3.5681311 L 6.59375,5.0056311 L 3,5.0056311 L 2,5.0056311 L 2,6.0056311 L 2,14.005631 L 2,15.005631 L 3,15.005631 L 15,15.005631 L 16,15.005631 L 16,14.005631 L 16,10.318131 L 14,10.005631 L 10.75,13.443131 L 10.59375,12.536881 C 10.13459,12.815298 9.5860865,12.974381 9,12.974381 C 7.3279452,12.974381 6.03125,11.668903 6.03125,10.068131 C 6.03125,8.9978832 6.6160996,8.0724833 7.5,7.5681311 L 5.75,6.7243811 L 9.96875,4.5993811 L 10.1875,3.0056311 L 9.8125,3.0056311 L 8.1875,3.0056311 L 7.5625,3.0056311 z M 8.59375,8.0681311 C 7.6936938,8.2707997 6.9999998,9.1063611 7,10.068131 C 7,11.179201 7.9333849,12.068132 9.03125,12.068131 C 9.5651198,12.068131 10.069835,11.849365 10.4375,11.505631 L 10,8.7556311 L 8.59375,8.0681311 z"
       id="path2435" />
    <path
       sodipodi:type="star"
       style="opacity:0.8;fill:#ffffff;fill-opacity:1;stroke:#333333;stroke-width:0;stroke-miterlimit:4;stroke-dasharray:none;stroke-opacity:1"
       id="path3249"
       sodipodi:sides="5"
       sodipodi:cx="14.125"
       sodipodi:cy="3.125"
       sodipodi:r1="5.9439111"
       sodipodi:r2="2.9719555"
       sodipodi:arg1="0.93465576"
       sodipodi:arg2="1.5629743"
       inkscape:flatsided="false"
       inkscape:rounded="0"
       inkscape:randomized="0"
       d="M 17.65625,7.9062501 L 14.148246,6.0968646 L 10.668977,7.9609059 L 11.305772,4.0654654 L 8.4578104,1.3325041 L 12.359375,0.73437495 L 14.078507,-2.8187292 L 15.853011,0.70704708 L 19.763455,1.2440692 L 16.958595,4.021248 L 17.65625,7.9062501 z"
       transform="matrix(0.8091913,-0.2649073,0.2649073,0.8091913,0.688903,7.8750551)" />
  </g>
</svg>
