<?xml version="1.0" encoding="UTF-8" standalone="no"?>
<!-- Created with Inkscape (http://www.inkscape.org/) -->

<svg
   xmlns:dc="http://purl.org/dc/elements/1.1/"
   xmlns:cc="http://creativecommons.org/ns#"
   xmlns:rdf="http://www.w3.org/1999/02/22-rdf-syntax-ns#"
   xmlns:svg="http://www.w3.org/2000/svg"
   xmlns="http://www.w3.org/2000/svg"
   xmlns:sodipodi="http://sodipodi.sourceforge.net/DTD/sodipodi-0.dtd"
   xmlns:inkscape="http://www.inkscape.org/namespaces/inkscape"
   width="18"
   height="18"
   id="svg2"
   version="1.1"
   inkscape:version="0.48.2 r9819"
   inkscape:export-filename="C:\Users\Marek\Desktop\icon1.1.png"
   inkscape:export-xdpi="90"
   inkscape:export-ydpi="90"
   sodipodi:docname="ringtone_icon_holo_dark.svg">
  <defs
     id="defs4" />
  <sodipodi:namedview
     id="base"
     pagecolor="#ffffff"
     bordercolor="#666666"
     borderopacity="1.0"
     inkscape:pageopacity="0.0"
     inkscape:pageshadow="2"
     inkscape:zoom="15.02"
     inkscape:cx="18.637006"
     inkscape:cy="23.414374"
     inkscape:document-units="px"
     inkscape:current-layer="layer1"
     showgrid="true"
     inkscape:snap-to-guides="false"
     inkscape:snap-grids="false"
     inkscape:window-width="1920"
     inkscape:window-height="1018"
     inkscape:window-x="-8"
     inkscape:window-y="-8"
     inkscape:window-maximized="1">
    <inkscape:grid
       type="xygrid"
       id="grid2996"
       empspacing="5"
       visible="true"
       enabled="true"
       snapvisiblegridlinesonly="true" />
  </sodipodi:namedview>
  <metadata
     id="metadata7">
    <rdf:RDF>
      <cc:Work
         rdf:about="">
        <dc:format>image/svg+xml</dc:format>
        <dc:type
           rdf:resource="http://purl.org/dc/dcmitype/StillImage" />
        <dc:title></dc:title>
      </cc:Work>
    </rdf:RDF>
  </metadata>
  <g
     inkscape:label="Vrstva 1"
     inkscape:groupmode="layer"
     id="layer1"
     transform="translate(0,-1034.3622)">
    <path
       sodipodi:type="arc"
       style="fill:#ffffff;fill-opacity:0;stroke:#000000;stroke-width:0.94499999;stroke-linecap:round;stroke-linejoin:round;stroke-miterlimit:4;stroke-opacity:0;stroke-dasharray:none"
       id="path3819"
       sodipodi:cx="15.965113"
       sodipodi:cy="10.046597"
       sodipodi:rx="1.6243312"
       sodipodi:ry="1.5974087"
       d="m 17.589444,10.046597 c 0,0.882224 -0.727238,1.597408 -1.624331,1.597408 -0.897094,0 -1.624332,-0.715184 -1.624332,-1.597408 0,-0.8822249 0.727238,-1.5974091 1.624332,-1.5974091 0.897093,0 1.624331,0.7151842 1.624331,1.5974091 z"
       transform="translate(-0.14358729,1016.2366)" />
    <path
       style="opacity:0.59999999999999998;fill:#333333;fill-opacity:1;stroke:#333333;stroke-width:0.02372988000000000;stroke-linecap:round;stroke-linejoin:round;stroke-miterlimit:4;stroke-opacity:1;stroke-dasharray:none"
       d="m 8.2831392,1052.3352 c -0.4197688,-0.1301 -0.8250172,-0.4086 -0.9771105,-0.6709 -0.092901,-0.16 -0.1537468,-0.3442 -0.1787333,-0.5407 -0.00966,-0.076 -0.031431,-0.1478 -0.048514,-0.1608 -0.017063,-0.012 -0.4558445,-0.041 -0.9750456,-0.062 -1.2239862,-0.048 -1.7606409,-0.076 -2.6111512,-0.1344 -1.1715597,-0.08 -1.3047087,-0.1012 -1.9156517,-0.3113 -0.5039953,-0.1726 -0.72584276,-0.2788 -0.8811288,-0.4219 -0.27179418,-0.2507 -0.43593425,-0.5379 -0.4992534,-0.8735 -0.054907,-0.291 -0.0561049,-0.5131 -0.003773,-0.6979 0.0632334,-0.2239 0.28460629,-0.6208 0.42657191,-0.7651 0.0667916,-0.069 0.38320379,-0.3147 0.70313939,-0.5483 0.8422245,-0.6145 1.5005207,-1.2353 1.7725175,-1.6713 0.1245471,-0.1995 0.3088187,-0.6328 0.3803571,-0.8941 0.1486191,-0.5433 0.4033784,-1.802 0.5152804,-2.5459 0.1260394,-0.8381 0.313267,-1.6276 0.4744173,-2.0007 0.044651,-0.1031 0.1601367,-0.3247 0.2566472,-0.492 0.1680292,-0.2912 0.1881358,-0.3148 0.4739642,-0.5581 0.4734986,-0.403 0.9180366,-0.6924 1.3292753,-0.8659 0.2068559,-0.086 0.8246015,-0.2698 1.1814453,-0.3491 0.1299576,-0.03 0.241007,-0.055 0.2467713,-0.062 0.00581,0 -0.080428,-0.095 -0.1915386,-0.2014 -0.4123038,-0.3947 -0.5685482,-0.7173 -0.5709433,-1.1788 -0.00229,-0.4451 0.161713,-0.8267 0.4972634,-1.156 0.7351634,-0.722 2.0018221,-0.8757 2.9720579,-0.3611 0.249016,0.1323 0.620677,0.4803 0.743898,0.6969 0.159809,0.2807 0.204186,0.4233 0.220272,0.7074 0.01898,0.3352 -0.01751,0.5014 -0.17559,0.7995 -0.09908,0.1874 -0.174574,0.2876 -0.341528,0.4546 -0.230974,0.231 -0.231516,0.2358 -0.03068,0.2637 0.217654,0.029 0.700675,0.1867 1.014496,0.3288 0.412617,0.1865 0.903193,0.5093 1.128974,0.7424 0.512052,0.5291 0.730335,0.9013 0.901874,1.5384 0.06907,0.2567 0.21817,1.1695 0.305771,1.8722 0.107163,0.8595 0.289451,1.7533 0.462921,2.2696 0.135994,0.4048 0.408108,0.9745 0.542505,1.1359 0.105443,0.1265 0.710042,0.629 1.278714,1.0622 0.288796,0.2202 0.602645,0.4694 0.697441,0.5542 0.359102,0.3203 0.522647,0.697 0.523185,1.205 1.86e-4,0.1802 -0.0053,0.1962 -0.15989,0.4802 -0.08806,0.1617 -0.225749,0.3729 -0.305999,0.4696 -0.147576,0.1777 -0.430464,0.4009 -0.620533,0.4896 -0.106331,0.048 -0.699086,0.2279 -1.328776,0.4 -0.719127,0.1961 -1.96326,0.361 -3.898765,0.5163 l -0.945156,0.076 -0.01668,0.24 c -0.0301,0.4332 -0.224327,0.7272 -0.6613406,1.0011 -0.3371989,0.2114 -0.6373903,0.284 -1.1686555,0.2832 -0.2921154,0 -0.3580121,-0.012 -0.5433217,-0.068 l 0,0 z"
       id="path3065"
       inkscape:connector-curvature="0"
       inkscape:export-filename="C:\Users\Marek\Desktop\icon3.1.png"
       inkscape:export-xdpi="90"
       inkscape:export-ydpi="90" />
  </g>
</svg>
