<?xml version="1.0" encoding="UTF-8" standalone="no"?>
<!-- Created with Inkscape (http://www.inkscape.org/) -->
<svg
   xmlns:dc="http://purl.org/dc/elements/1.1/"
   xmlns:cc="http://creativecommons.org/ns#"
   xmlns:rdf="http://www.w3.org/1999/02/22-rdf-syntax-ns#"
   xmlns:svg="http://www.w3.org/2000/svg"
   xmlns="http://www.w3.org/2000/svg"
   xmlns:sodipodi="http://sodipodi.sourceforge.net/DTD/sodipodi-0.dtd"
   xmlns:inkscape="http://www.inkscape.org/namespaces/inkscape"
   width="18"
   height="18"
   id="svg2"
   sodipodi:version="0.32"
   inkscape:version="0.46"
   version="1.0"
   sodipodi:docname="ic_menu_rot13.svg"
   inkscape:output_extension="org.inkscape.output.svg.inkscape">
  <defs
     id="defs4">
    <inkscape:perspective
       sodipodi:type="inkscape:persp3d"
       inkscape:vp_x="0 : 526.18109 : 1"
       inkscape:vp_y="0 : 1000 : 0"
       inkscape:vp_z="744.09448 : 526.18109 : 1"
       inkscape:persp3d-origin="372.04724 : 350.78739 : 1"
       id="perspective10" />
  </defs>
  <sodipodi:namedview
     id="base"
     pagecolor="#ffffff"
     bordercolor="#666666"
     borderopacity="1.0"
     gridtolerance="10000"
     guidetolerance="10"
     objecttolerance="10"
     inkscape:pageopacity="0.0"
     inkscape:pageshadow="2"
     inkscape:zoom="16"
     inkscape:cx="-6.8749944"
     inkscape:cy="14.230619"
     inkscape:document-units="px"
     inkscape:current-layer="layer1"
     showgrid="true"
     showguides="true"
     inkscape:snap-global="false"
     inkscape:window-width="1280"
     inkscape:window-height="968"
     inkscape:window-x="0"
     inkscape:window-y="22">
    <inkscape:grid
       type="xygrid"
       id="grid2383"
       visible="true"
       enabled="true" />
  </sodipodi:namedview>
  <metadata
     id="metadata7">
    <rdf:RDF>
      <cc:Work
         rdf:about="">
        <dc:format>image/svg+xml</dc:format>
        <dc:type
           rdf:resource="http://purl.org/dc/dcmitype/StillImage" />
      </cc:Work>
    </rdf:RDF>
  </metadata>
  <g
     inkscape:label="Layer 1"
     inkscape:groupmode="layer"
     id="layer1">
    <path
       id="path3159"
       style="opacity:0.8;fill:none;fill-rule:evenodd;stroke:#ffffff;stroke-width:2;stroke-linecap:butt;stroke-linejoin:miter;stroke-miterlimit:4;stroke-dasharray:none;stroke-opacity:1"
       d="M 11.03125,17 L 11.03125,9.03125M 16.03125,17.015625 L 16.03125,9.046875M 11.223026,9.566776 L 15.839474,16.464474" />
    <path
       id="path3163"
       style="opacity:0.8;fill:none;fill-rule:evenodd;stroke:#ffffff;stroke-width:2;stroke-linecap:butt;stroke-linejoin:bevel;stroke-miterlimit:4;stroke-dasharray:none;stroke-opacity:1"
       d="M 2.0360939,9.0095792 L 2.0360939,5.3023897 L 4.5099415,1.5952004 L 6.9837895,5.3023897 L 6.9837895,9.0095792 L 6.9837895,9.0095792M 2.6397051,6.0040212 C 6.6397051,6.0040212 6.6397051,6.0040212 6.6397051,6.0040212 L 6.6397051,6.0040212" />
    <path
       style="opacity:0.8;fill:#ffffff;fill-opacity:1;stroke:none;stroke-width:2;stroke-linecap:butt;stroke-linejoin:miter;stroke-miterlimit:4;stroke-dasharray:none;stroke-opacity:1"
       d="M 10.09375 1.96875 C 9.7451116 1.9770183 9.3669864 2.002187 8.96875 2.03125 L 9.0625 3.03125 C 12.128807 2.8074736 13.304862 3.2960851 13.71875 3.75 C 14.032853 4.0944794 14.03462 4.5324512 14.03125 5 L 12.96875 5.03125 L 13.5625 6.1875 L 13.71875 6.5 L 13.90625 6.875 L 14.5 8 L 15.0625 6.875 L 15.28125 6.5 L 15.4375 6.15625 L 16.03125 5 L 15.03125 5 C 15.050318 4.5067221 15.045865 3.7266778 14.46875 3.09375 C 13.795449 2.3553343 12.534219 1.9108718 10.09375 1.96875 z "
       id="path3193" />
    <path
       style="opacity:0.8;fill:#ffffff;fill-opacity:1;stroke:none;stroke-width:2;stroke-linecap:butt;stroke-linejoin:miter;stroke-miterlimit:4;stroke-dasharray:none;stroke-opacity:1"
       d="M 7.9375,16.044354 C 8.2861384,16.036086 8.6642636,16.010917 9.0625,15.981854 L 8.96875,14.981854 C 5.902443,15.20563 4.726388,14.717019 4.3125,14.263104 C 3.998397,13.918625 3.99663,13.480653 4,13.013104 L 5.0625,12.981854 L 4.46875,11.825604 L 4.3125,11.513104 L 4.125,11.138104 L 3.53125,10.013104 L 2.96875,11.138104 L 2.75,11.513104 L 2.59375,11.856854 L 2,13.013104 L 3,13.013104 C 2.980932,13.506382 2.985385,14.286426 3.5625,14.919354 C 4.235801,15.65777 5.497031,16.102232 7.9375,16.044354 z"
       id="path3203" />
  </g>
</svg>
