<?xml version="1.0" encoding="UTF-8" standalone="no"?>
<!-- Created with Inkscape (http://www.inkscape.org/) -->

<svg
   xmlns:dc="http://purl.org/dc/elements/1.1/"
   xmlns:cc="http://creativecommons.org/ns#"
   xmlns:rdf="http://www.w3.org/1999/02/22-rdf-syntax-ns#"
   xmlns:svg="http://www.w3.org/2000/svg"
   xmlns="http://www.w3.org/2000/svg"
   xmlns:xlink="http://www.w3.org/1999/xlink"
   xmlns:sodipodi="http://sodipodi.sourceforge.net/DTD/sodipodi-0.dtd"
   xmlns:inkscape="http://www.inkscape.org/namespaces/inkscape"
   width="180"
   height="120"
   id="svg2"
   version="1.1"
   inkscape:version="0.48.0 r9654"
   sodipodi:docname="countdown_promo_01a.svg">
  <defs
     id="defs4">
    <linearGradient
       id="linearGradient3787">
      <stop
         id="stop3789"
         offset="0"
         style="stop-color:#003ba8;stop-opacity:0.94117647;" />
      <stop
         style="stop-color:#375eaa;stop-opacity:0.96862745;"
         offset="0.12328396"
         id="stop3885" />
      <stop
         style="stop-color:#7ca0ec;stop-opacity:1;"
         offset="0.5"
         id="stop3795" />
      <stop
         id="stop3887"
         offset="0.87671602"
         style="stop-color:#32569e;stop-opacity:1;" />
      <stop
         id="stop3791"
         offset="1"
         style="stop-color:#003191;stop-opacity:1;" />
    </linearGradient>
    <linearGradient
       id="linearGradient3805">
      <stop
         id="stop3807"
         offset="0"
         style="stop-color:#6ed7ff;stop-opacity:0.77653629;" />
      <stop
         style="stop-color:#cff1ff;stop-opacity:0.77653629;"
         offset="0.5"
         id="stop3813" />
      <stop
         id="stop3809"
         offset="1"
         style="stop-color:#71d8ff;stop-opacity:0.77094972;" />
    </linearGradient>
    <linearGradient
       id="linearGradient3821">
      <stop
         id="stop3823"
         offset="0"
         style="stop-color:#ffcc00;stop-opacity:1;" />
      <stop
         id="stop3825"
         offset="1"
         style="stop-color:#ffcc00;stop-opacity:1;" />
    </linearGradient>
    <linearGradient
       id="linearGradient3829">
      <stop
         id="stop3831"
         offset="0"
         style="stop-color:#ffe88d;stop-opacity:1;" />
      <stop
         id="stop3833"
         offset="1"
         style="stop-color:#ffcc00;stop-opacity:1;" />
    </linearGradient>
    <linearGradient
       id="linearGradient3853">
      <stop
         style="stop-color:#ffeda4;stop-opacity:1;"
         offset="0"
         id="stop3855" />
      <stop
         style="stop-color:#ffcc00;stop-opacity:1;"
         offset="1"
         id="stop3857" />
    </linearGradient>
    <linearGradient
       id="linearGradient3869">
      <stop
         id="stop3871"
         offset="0"
         style="stop-color:#ffd426;stop-opacity:0.64245808;" />
      <stop
         id="stop3873"
         offset="1"
         style="stop-color:#ffe787;stop-opacity:0.54748601;" />
    </linearGradient>
    <linearGradient
       id="linearGradient3877">
      <stop
         id="stop3879"
         offset="0"
         style="stop-color:#ffffff;stop-opacity:0.7206704;" />
      <stop
         id="stop3881"
         offset="1"
         style="stop-color:#ffffff;stop-opacity:0;" />
    </linearGradient>
    <linearGradient
       id="linearGradient3899">
      <stop
         id="stop3901"
         offset="0"
         style="stop-color:#000000;stop-opacity:1;" />
      <stop
         id="stop3903"
         offset="1"
         style="stop-color:#000000;stop-opacity:0;" />
    </linearGradient>
    <linearGradient
       id="linearGradient3907">
      <stop
         style="stop-color:#003042;stop-opacity:0.54189944;"
         offset="0"
         id="stop3909" />
      <stop
         id="stop3911"
         offset="1"
         style="stop-color:#aae7ff;stop-opacity:0;" />
    </linearGradient>
    <linearGradient
       id="linearGradient3927">
      <stop
         id="stop3929"
         offset="0"
         style="stop-color:#ffffff;stop-opacity:0.39664805;" />
      <stop
         id="stop3931"
         offset="1"
         style="stop-color:#ffffff;stop-opacity:0.20111732;" />
    </linearGradient>
    <linearGradient
       id="linearGradient3822">
      <stop
         style="stop-color:#001c50;stop-opacity:0.74860334;"
         offset="0"
         id="stop3824" />
      <stop
         id="stop3826"
         offset="0.12979373"
         style="stop-color:#375eaa;stop-opacity:0.40223464;" />
      <stop
         id="stop3828"
         offset="0.5"
         style="stop-color:#6c95ea;stop-opacity:0;" />
      <stop
         style="stop-color:#32569e;stop-opacity:0.20111732;"
         offset="0.88434821"
         id="stop3830" />
      <stop
         style="stop-color:#00194a;stop-opacity:0.69832402;"
         offset="1"
         id="stop3832" />
    </linearGradient>
    <linearGradient
       id="linearGradient3838">
      <stop
         id="stop3846"
         offset="0"
         style="stop-color:#7faaff;stop-opacity:1;" />
      <stop
         style="stop-color:#6e9eff;stop-opacity:1;"
         offset="0.5"
         id="stop3852" />
      <stop
         id="stop3848"
         offset="1"
         style="stop-color:#105fff;stop-opacity:1;" />
    </linearGradient>
    <linearGradient
       id="linearGradient3840">
      <stop
         id="stop3842"
         offset="0"
         style="stop-color:#000000;stop-opacity:1;" />
      <stop
         id="stop3844"
         offset="1"
         style="stop-color:#000000;stop-opacity:0;" />
    </linearGradient>
    <linearGradient
       gradientTransform="matrix(1,0,0,0.75134707,0,2.9607298)"
       gradientUnits="userSpaceOnUse"
       y2="14.73951"
       x2="40.141594"
       y1="11.966812"
       x1="40.141594"
       id="linearGradient3846-4"
       xlink:href="#linearGradient3840-3"
       inkscape:collect="always" />
    <linearGradient
       gradientTransform="translate(0,54)"
       y2="11.835237"
       x2="41.946896"
       y1="5.9673839"
       x1="41.946896"
       gradientUnits="userSpaceOnUse"
       id="linearGradient3860-2"
       xlink:href="#linearGradient3838-6"
       inkscape:collect="always" />
    <linearGradient
       gradientTransform="translate(0,54)"
       y2="8.6814156"
       x2="51.858906"
       y1="8.6814156"
       x1="20"
       gradientUnits="userSpaceOnUse"
       id="linearGradient3856-0"
       xlink:href="#linearGradient3822-2"
       inkscape:collect="always" />
    <linearGradient
       y2="11.835237"
       x2="41.946896"
       y1="5.9673839"
       x1="41.946896"
       gradientUnits="userSpaceOnUse"
       id="linearGradient3850-7"
       xlink:href="#linearGradient3838-6"
       inkscape:collect="always" />
    <filter
       id="filter4361-2"
       inkscape:collect="always">
      <feGaussianBlur
         id="feGaussianBlur4363-7"
         stdDeviation="1.1414161"
         inkscape:collect="always" />
    </filter>
    <filter
       height="1.4310614"
       y="-0.21553072"
       width="1.2284036"
       x="-0.1142018"
       id="filter4357-0"
       inkscape:collect="always">
      <feGaussianBlur
         id="feGaussianBlur4359-1"
         stdDeviation="0.91650928"
         inkscape:collect="always" />
    </filter>
    <filter
       height="1.3644115"
       y="-0.18220575"
       width="1.1621743"
       x="-0.081087161"
       id="filter4353-2"
       inkscape:collect="always">
      <feGaussianBlur
         id="feGaussianBlur4355-2"
         stdDeviation="0.91650928"
         inkscape:collect="always" />
    </filter>
    <filter
       height="2.104"
       y="-0.552"
       width="1.207"
       x="-0.1035"
       id="filter4341-3"
       inkscape:collect="always">
      <feGaussianBlur
         id="feGaussianBlur4343-4"
         stdDeviation="1.38"
         inkscape:collect="always" />
    </filter>
    <filter
       height="2.104"
       y="-0.552"
       width="1.207"
       x="-0.1035"
       id="filter4337-7"
       inkscape:collect="always">
      <feGaussianBlur
         id="feGaussianBlur4339-3"
         stdDeviation="1.38"
         inkscape:collect="always" />
    </filter>
    <linearGradient
       gradientUnits="userSpaceOnUse"
       y2="52.295605"
       x2="41.387722"
       y1="44.166565"
       x1="41.387722"
       id="linearGradient3933-5"
       xlink:href="#linearGradient3927-6"
       inkscape:collect="always" />
    <radialGradient
       r="5.5752215"
       fy="28.532642"
       fx="42.739964"
       cy="28.532642"
       cx="42.739964"
       gradientTransform="matrix(-1.6087182,-1.484266,-0.47900388,0.51916727,111.16005,76.682982)"
       gradientUnits="userSpaceOnUse"
       id="radialGradient3919-1"
       xlink:href="#linearGradient3907-4"
       inkscape:collect="always" />
    <radialGradient
       gradientUnits="userSpaceOnUse"
       gradientTransform="matrix(1.6909388,-1.3898726,0.49819167,0.60610707,-43.157952,70.224312)"
       r="5.5752215"
       fy="28.532642"
       fx="42.739964"
       cy="28.532642"
       cx="42.739964"
       id="radialGradient3905-9"
       xlink:href="#linearGradient3907-4"
       inkscape:collect="always" />
    <linearGradient
       gradientTransform="matrix(0.49999996,0,0,1.178392,17.993679,-7.9247234)"
       gradientUnits="userSpaceOnUse"
       y2="47.698677"
       x2="37.282673"
       y1="37.269474"
       x1="34.804672"
       id="linearGradient3867-4"
       xlink:href="#linearGradient3869-1"
       inkscape:collect="always" />
    <linearGradient
       gradientUnits="userSpaceOnUse"
       y2="59.508083"
       x2="39.260677"
       y1="48.121067"
       x1="39.260677"
       id="linearGradient3843-2"
       xlink:href="#linearGradient3853-8"
       inkscape:collect="always" />
    <linearGradient
       gradientUnits="userSpaceOnUse"
       y2="35.22419"
       x2="34.178307"
       y1="27.114363"
       x1="34.304672"
       id="linearGradient3835-9"
       xlink:href="#linearGradient3829-1"
       inkscape:collect="always" />
    <linearGradient
       gradientUnits="userSpaceOnUse"
       y2="35.960178"
       x2="50.079647"
       y1="35.960178"
       x1="22"
       id="linearGradient3811-0"
       xlink:href="#linearGradient3805-5"
       inkscape:collect="always" />
    <linearGradient
       gradientUnits="userSpaceOnUse"
       y2="8.6814156"
       x2="51.858906"
       y1="8.6814156"
       x1="20"
       id="linearGradient3793-1"
       xlink:href="#linearGradient3822-2"
       inkscape:collect="always" />
    <linearGradient
       id="linearGradient3787-7">
      <stop
         id="stop3789-3"
         offset="0"
         style="stop-color:#003ba8;stop-opacity:0.94117647;" />
      <stop
         style="stop-color:#375eaa;stop-opacity:0.96862745;"
         offset="0.12328396"
         id="stop3885-3" />
      <stop
         style="stop-color:#7ca0ec;stop-opacity:1;"
         offset="0.5"
         id="stop3795-1" />
      <stop
         id="stop3887-0"
         offset="0.87671602"
         style="stop-color:#32569e;stop-opacity:1;" />
      <stop
         id="stop3791-8"
         offset="1"
         style="stop-color:#003191;stop-opacity:1;" />
    </linearGradient>
    <linearGradient
       id="linearGradient3805-5">
      <stop
         id="stop3807-8"
         offset="0"
         style="stop-color:#6ed7ff;stop-opacity:0.77653629;" />
      <stop
         style="stop-color:#cff1ff;stop-opacity:0.77653629;"
         offset="0.5"
         id="stop3813-5" />
      <stop
         id="stop3809-8"
         offset="1"
         style="stop-color:#71d8ff;stop-opacity:0.77094972;" />
    </linearGradient>
    <linearGradient
       id="linearGradient3821-3">
      <stop
         id="stop3823-7"
         offset="0"
         style="stop-color:#ffcc00;stop-opacity:1;" />
      <stop
         id="stop3825-8"
         offset="1"
         style="stop-color:#ffcc00;stop-opacity:1;" />
    </linearGradient>
    <linearGradient
       id="linearGradient3829-1">
      <stop
         id="stop3831-7"
         offset="0"
         style="stop-color:#ffe88d;stop-opacity:1;" />
      <stop
         id="stop3833-2"
         offset="1"
         style="stop-color:#ffcc00;stop-opacity:1;" />
    </linearGradient>
    <linearGradient
       id="linearGradient3853-8">
      <stop
         style="stop-color:#ffeda4;stop-opacity:1;"
         offset="0"
         id="stop3855-7" />
      <stop
         style="stop-color:#ffcc00;stop-opacity:1;"
         offset="1"
         id="stop3857-6" />
    </linearGradient>
    <linearGradient
       id="linearGradient3869-1">
      <stop
         id="stop3871-6"
         offset="0"
         style="stop-color:#ffd426;stop-opacity:0.64245808;" />
      <stop
         id="stop3873-3"
         offset="1"
         style="stop-color:#ffe787;stop-opacity:0.54748601;" />
    </linearGradient>
    <linearGradient
       id="linearGradient3877-7">
      <stop
         id="stop3879-8"
         offset="0"
         style="stop-color:#ffffff;stop-opacity:0.7206704;" />
      <stop
         id="stop3881-8"
         offset="1"
         style="stop-color:#ffffff;stop-opacity:0;" />
    </linearGradient>
    <linearGradient
       id="linearGradient3899-9">
      <stop
         id="stop3901-3"
         offset="0"
         style="stop-color:#000000;stop-opacity:1;" />
      <stop
         id="stop3903-4"
         offset="1"
         style="stop-color:#000000;stop-opacity:0;" />
    </linearGradient>
    <linearGradient
       id="linearGradient3907-4">
      <stop
         style="stop-color:#003042;stop-opacity:0.54189944;"
         offset="0"
         id="stop3909-6" />
      <stop
         id="stop3911-7"
         offset="1"
         style="stop-color:#aae7ff;stop-opacity:0;" />
    </linearGradient>
    <linearGradient
       id="linearGradient3927-6">
      <stop
         id="stop3929-0"
         offset="0"
         style="stop-color:#ffffff;stop-opacity:0.39664805;" />
      <stop
         id="stop3931-5"
         offset="1"
         style="stop-color:#ffffff;stop-opacity:0.20111732;" />
    </linearGradient>
    <linearGradient
       id="linearGradient3822-2">
      <stop
         style="stop-color:#001c50;stop-opacity:0.74860334;"
         offset="0"
         id="stop3824-8" />
      <stop
         id="stop3826-6"
         offset="0.12979373"
         style="stop-color:#375eaa;stop-opacity:0.40223464;" />
      <stop
         id="stop3828-0"
         offset="0.5"
         style="stop-color:#6c95ea;stop-opacity:0;" />
      <stop
         style="stop-color:#32569e;stop-opacity:0.20111732;"
         offset="0.88434821"
         id="stop3830-1" />
      <stop
         style="stop-color:#00194a;stop-opacity:0.69832402;"
         offset="1"
         id="stop3832-2" />
    </linearGradient>
    <linearGradient
       id="linearGradient3838-6">
      <stop
         id="stop3846-3"
         offset="0"
         style="stop-color:#7faaff;stop-opacity:1;" />
      <stop
         style="stop-color:#6e9eff;stop-opacity:1;"
         offset="0.5"
         id="stop3852-8" />
      <stop
         id="stop3848-3"
         offset="1"
         style="stop-color:#105fff;stop-opacity:1;" />
    </linearGradient>
    <linearGradient
       id="linearGradient3840-3">
      <stop
         id="stop3842-2"
         offset="0"
         style="stop-color:#000000;stop-opacity:1;" />
      <stop
         id="stop3844-1"
         offset="1"
         style="stop-color:#000000;stop-opacity:0;" />
    </linearGradient>
    <linearGradient
       inkscape:collect="always"
       xlink:href="#linearGradient3838-6"
       id="linearGradient4494"
       gradientUnits="userSpaceOnUse"
       x1="41.946896"
       y1="5.9673839"
       x2="41.946896"
       y2="11.835237" />
    <linearGradient
       inkscape:collect="always"
       xlink:href="#linearGradient3822-2"
       id="linearGradient4496"
       gradientUnits="userSpaceOnUse"
       x1="20"
       y1="8.6814156"
       x2="51.858906"
       y2="8.6814156" />
    <linearGradient
       inkscape:collect="always"
       xlink:href="#linearGradient3805-5"
       id="linearGradient4498"
       gradientUnits="userSpaceOnUse"
       x1="22"
       y1="35.960178"
       x2="50.079647"
       y2="35.960178" />
    <linearGradient
       inkscape:collect="always"
       xlink:href="#linearGradient3869-1"
       id="linearGradient4500"
       gradientUnits="userSpaceOnUse"
       gradientTransform="matrix(0.49999996,0,0,1.178392,17.993679,-7.9247234)"
       x1="34.804672"
       y1="37.269474"
       x2="37.282673"
       y2="47.698677" />
    <linearGradient
       inkscape:collect="always"
       xlink:href="#linearGradient3853-8"
       id="linearGradient4502"
       gradientUnits="userSpaceOnUse"
       x1="39.260677"
       y1="48.121067"
       x2="39.260677"
       y2="59.508083" />
    <linearGradient
       inkscape:collect="always"
       xlink:href="#linearGradient3829-1"
       id="linearGradient4504"
       gradientUnits="userSpaceOnUse"
       x1="34.304672"
       y1="27.114363"
       x2="34.178307"
       y2="35.22419" />
    <radialGradient
       inkscape:collect="always"
       xlink:href="#linearGradient3907-4"
       id="radialGradient4506"
       gradientUnits="userSpaceOnUse"
       gradientTransform="matrix(1.6909388,-1.3898726,0.49819167,0.60610707,-43.157952,70.224312)"
       cx="42.739964"
       cy="28.532642"
       fx="42.739964"
       fy="28.532642"
       r="5.5752215" />
    <radialGradient
       inkscape:collect="always"
       xlink:href="#linearGradient3907-4"
       id="radialGradient4508"
       gradientUnits="userSpaceOnUse"
       gradientTransform="matrix(-1.6087182,-1.484266,-0.47900388,0.51916727,111.16005,76.682982)"
       cx="42.739964"
       cy="28.532642"
       fx="42.739964"
       fy="28.532642"
       r="5.5752215" />
    <linearGradient
       inkscape:collect="always"
       xlink:href="#linearGradient3927-6"
       id="linearGradient4510"
       gradientUnits="userSpaceOnUse"
       x1="41.387722"
       y1="44.166565"
       x2="41.387722"
       y2="52.295605" />
    <linearGradient
       inkscape:collect="always"
       xlink:href="#linearGradient3838-6"
       id="linearGradient4512"
       gradientUnits="userSpaceOnUse"
       gradientTransform="translate(0,54)"
       x1="41.946896"
       y1="5.9673839"
       x2="41.946896"
       y2="11.835237" />
    <linearGradient
       inkscape:collect="always"
       xlink:href="#linearGradient3822-2"
       id="linearGradient4514"
       gradientUnits="userSpaceOnUse"
       gradientTransform="translate(0,54)"
       x1="20"
       y1="8.6814156"
       x2="51.858906"
       y2="8.6814156" />
    <linearGradient
       inkscape:collect="always"
       xlink:href="#linearGradient3840-3"
       id="linearGradient4516"
       gradientUnits="userSpaceOnUse"
       gradientTransform="matrix(1,0,0,0.75134707,0,2.9607298)"
       x1="40.141594"
       y1="11.966812"
       x2="40.141594"
       y2="14.73951" />
    <filter
       inkscape:collect="always"
       id="filter4586">
      <feGaussianBlur
         inkscape:collect="always"
         stdDeviation="1.175"
         id="feGaussianBlur4588" />
    </filter>
    <filter
       inkscape:collect="always"
       id="filter4602">
      <feGaussianBlur
         inkscape:collect="always"
         stdDeviation="0.3909668"
         id="feGaussianBlur4604" />
    </filter>
  </defs>
  <sodipodi:namedview
     id="base"
     pagecolor="#ffffff"
     bordercolor="#666666"
     borderopacity="1.0"
     inkscape:pageopacity="0.0"
     inkscape:pageshadow="2"
     inkscape:zoom="0.98994949"
     inkscape:cx="81.257195"
     inkscape:cy="73.243708"
     inkscape:document-units="px"
     inkscape:current-layer="layer6"
     showgrid="false"
     inkscape:window-width="961"
     inkscape:window-height="596"
     inkscape:window-x="17"
     inkscape:window-y="27"
     inkscape:window-maximized="0" />
  <metadata
     id="metadata7">
    <rdf:RDF>
      <cc:Work
         rdf:about="">
        <dc:format>image/svg+xml</dc:format>
        <dc:type
           rdf:resource="http://purl.org/dc/dcmitype/StillImage" />
        <dc:title></dc:title>
      </cc:Work>
    </rdf:RDF>
  </metadata>
  <g
     inkscape:label="Ebene 1"
     inkscape:groupmode="layer"
     id="layer1"
     transform="translate(0,-932.36218)"
     style="display:none"
     sodipodi:insensitive="true">
    <rect
       style="fill:#a1a1a1;fill-opacity:1;fill-rule:evenodd;stroke:none"
       id="rect2985"
       width="245.75999"
       height="120"
       x="-32.880001"
       y="932.36218" />
    <rect
       y="932.36218"
       x="0"
       height="120"
       width="180"
       id="rect3758"
       style="fill:#d0d0d0;fill-opacity:1;fill-rule:evenodd;stroke:none" />
    <rect
       y="944.36218"
       x="-20.879999"
       height="96"
       width="221.75999"
       id="rect3756"
       style="fill:none;stroke:#e70000;stroke-opacity:1" />
  </g>
  <g
     inkscape:groupmode="layer"
     id="layer6"
     inkscape:label="Ebene#2"
     style="display:inline">
    <rect
       transform="translate(0,-932.36218)"
       y="932.36218"
       x="-32.880001"
       height="120"
       width="245.75999"
       id="rect4607"
       style="fill:#ffffff;fill-opacity:1;fill-rule:evenodd;stroke:none;display:inline"
       inkscape:export-xdpi="375"
       inkscape:export-ydpi="375" />
  </g>
  <g
     inkscape:groupmode="layer"
     id="layer5"
     inkscape:label="Ebene#1"
     style="display:inline"
     sodipodi:insensitive="true">
    <g
       style="display:inline;filter:url(#filter4586)"
       transform="matrix(8,0,0,8,-595.71429,166.14286)"
       id="g4298">
      <g
         id="g4300"
         inkscape:label="Ebene#2"
         style="display:none"
         transform="translate(49.714286,-65.142857)">
        <rect
           style="fill:#000000;fill-opacity:1;fill-rule:evenodd;stroke:none;display:inline"
           id="rect4302"
           width="72"
           height="72"
           x="0"
           y="2.6541269e-016" />
      </g>
      <g
         id="g4304"
         inkscape:label="Layer 1"
         transform="translate(49.714286,-57.142857)"
         style="display:none">
        <rect
           style="fill:none;stroke:#000000;stroke-width:0.125;stroke-opacity:1"
           id="rect4306"
           width="59"
           height="59"
           x="6.5"
           y="-1.5" />
        <rect
           style="fill:none;stroke:#ff0c0c;stroke-width:0.125;stroke-opacity:1"
           id="rect4308"
           width="55"
           height="55"
           x="8.5"
           y="0.5" />
      </g>
      <g
         id="g4310"
         inkscape:label="Ebene#1"
         style="display:inline"
         transform="translate(49.714286,-65.142857)">
        <path
           sodipodi:nodetypes="ccccc"
           inkscape:connector-curvature="0"
           id="path4312"
           d="m 20,8 32,0 0,6 -32,0 z"
           style="opacity:0.97000002;fill:#000000;fill-opacity:1;stroke:none;display:inline;filter:url(#filter4341-3)" />
        <path
           style="opacity:0.97000002;fill:#000000;fill-opacity:1;stroke:none;display:inline;filter:url(#filter4337-7)"
           d="m 20,62 32,0 0,6 -32,0 z"
           id="path4314"
           inkscape:connector-curvature="0"
           sodipodi:nodetypes="ccccc" />
        <path
           sodipodi:nodetypes="ccccccccccccccccc"
           inkscape:connector-curvature="0"
           id="path4316"
           d="m 22,14.079646 0,6 c 0.0023,4.438396 1.482696,6.020643 4.031391,8.615796 L 34,36 c 1.407358,1.534385 0.629279,2.756564 0,4 l -8.09361,8.09361 C 23.128312,50.728234 21.887364,51.907176 22,55.978163 L 22,62 l 27.920354,0 0,-6.134473 C 49.734003,52.073243 48.24391,50.653275 45.998441,48.051883 L 38,40 c -1.112022,-1.194331 -1.288189,-2.505643 0,-4 l 7.782618,-7.087029 c 3.199255,-3.055469 4.212457,-4.892681 4.225129,-8.913973 l -0.08739,-6.078644 z"
           style="fill:#000000;fill-opacity:0.11618257;stroke:none;display:inline;filter:url(#filter4361-2)" />
        <path
           sodipodi:nodetypes="ccccccccc"
           inkscape:connector-curvature="0"
           id="path4318"
           d="m 22.372421,61.905658 27.074993,0.112636 0,-2.379445 C 49.484854,58.367738 48.676629,57.5809 47.841009,57.117776 L 37.30307,50.369911 c -0.968204,-0.667161 -2.279187,-0.476217 -3.084442,0.08572 l -10.291406,6.748821 c -1.206706,0.86255 -1.679327,1.672172 -1.595878,2.88537 z"
           style="fill:#000000;fill-opacity:0.48132779;stroke:none;display:inline;filter:url(#filter4353-2)" />
        <path
           sodipodi:nodetypes="cscsczc"
           inkscape:connector-curvature="0"
           id="path4320"
           d="m 26.469573,28.044316 c 2.457637,2.467288 5.04066,4.934576 7.709338,7.401864 0.58013,0.536352 1.522715,1.630226 1.871595,2.803745 0.318068,-1.256605 0.923932,-2.124016 1.457532,-2.600579 2.627635,-2.346763 5.434269,-4.872525 8.222372,-7.379757 0,0 -5.791712,0.601952 -9.686737,0.563183 -3.895025,-0.03877 -9.5741,-0.788456 -9.5741,-0.788456 z"
           style="fill:#000000;fill-opacity:0.48132779;stroke:none;display:inline;filter:url(#filter4357-0)" />
      </g>
      <g
         id="g4322"
         inkscape:label="Ebene"
         style="display:inline"
         transform="translate(49.714286,-65.142857)">
        <path
           sodipodi:nodetypes="ccccc"
           inkscape:connector-curvature="0"
           id="path4324"
           d="m 20,6 32,0 0,6 -32,0 z"
           style="fill:url(#linearGradient4494);fill-opacity:1;stroke:none" />
        <path
           style="fill:url(#linearGradient4496);fill-opacity:1;stroke:none"
           d="m 20,6 32,0 0,6 -32,0 z"
           id="path4326"
           inkscape:connector-curvature="0"
           sodipodi:nodetypes="ccccc" />
        <path
           style="fill:url(#linearGradient4498);fill-opacity:1;stroke:none"
           d="m 22,12.079646 0,6 c 0.0023,4.438396 1.482696,6.020643 4.031391,8.615796 L 34,34 c 1.407358,1.534385 0.629279,2.756564 0,4 l -8.09361,8.09361 C 23.128312,48.728234 21.887364,49.907176 22,53.978163 L 22,60 l 27.920354,0 0,-6.134473 C 49.734003,50.073243 48.24391,48.653275 45.998441,46.051883 L 38,38 c -1.112022,-1.194331 -1.288189,-2.505643 0,-4 l 7.782618,-7.087029 c 3.199255,-3.055469 4.212457,-4.892681 4.225129,-8.913973 l -0.08739,-6.078644 z"
           id="path4328"
           inkscape:connector-curvature="0"
           sodipodi:nodetypes="ccccccccccccccccc" />
        <path
           style="fill:url(#linearGradient4500);fill-opacity:1;stroke:none"
           d="m 35.902877,35.375032 0.253432,-0.06636 0,13.206628 -0.337909,-0.06636 z"
           id="path4330"
           inkscape:connector-curvature="0" />
        <path
           style="fill:url(#linearGradient4502);fill-opacity:1;stroke:none"
           d="m 22.372421,59.905658 27.074993,0.112636 0,-2.379445 C 49.484854,56.367738 48.676629,55.5809 47.841009,55.117776 L 37.30307,48.369911 c -0.968204,-0.667161 -2.279187,-0.476217 -3.084442,0.08572 l -10.291406,6.748821 c -1.206706,0.86255 -1.679327,1.672172 -1.595878,2.88537 z"
           id="path4332"
           inkscape:connector-curvature="0"
           sodipodi:nodetypes="ccccccccc" />
        <path
           style="fill:url(#linearGradient4504);fill-opacity:1;stroke:none"
           d="m 26.469573,26.044316 c 2.457637,2.467288 5.04066,4.934576 7.709338,7.401864 0.58013,0.536352 1.522715,1.630226 1.871595,2.803745 0.318068,-1.256605 0.923932,-2.124016 1.457532,-2.600579 2.627635,-2.346763 5.434269,-4.872525 8.222372,-7.379757 0,0 -5.791712,0.601952 -9.686737,0.563183 -3.895025,-0.03877 -9.5741,-0.788456 -9.5741,-0.788456 z"
           id="path4334"
           inkscape:connector-curvature="0"
           sodipodi:nodetypes="cscsczc" />
        <path
           style="fill:url(#radialGradient4506);fill-opacity:1;stroke:none"
           d="m 49.539823,21.185841 c 0.02522,2.432622 -4.018884,6.052421 -7.814889,9.276125 -1.882217,1.598447 -3.792399,3.558339 -4.769182,4.502635 -1.867816,1.372987 -2.627211,-1.021761 -3.640369,-1.642976 0,0 4.375645,-6.669455 5.631519,-7.715431 1.255875,-1.045975 2.33207,-2.366547 3.847573,-2.756971 1.181012,-0.304253 5.145,-0.771492 6.745348,-1.663382 z"
           id="path4336"
           inkscape:connector-curvature="0"
           sodipodi:nodetypes="cscczsc" />
        <path
           sodipodi:nodetypes="cscczsc"
           inkscape:connector-curvature="0"
           id="path4338"
           d="m 22.383046,21.185841 c 0.0638,2.388112 4.137457,5.984483 7.814889,9.304284 1.786598,1.612851 3.879766,3.527291 4.909978,4.418158 1.867816,1.372987 2.627211,-1.021761 3.640369,-1.642976 0,0 -4.45529,-6.278059 -5.432404,-7.642618 -0.977114,-1.364559 -1.797814,-2.400897 -4.469074,-2.970579 -3.757845,-0.801412 -3.006911,-0.397281 -6.463758,-1.466269 z"
           style="fill:url(#radialGradient4508);fill-opacity:1;stroke:none" />
        <path
           style="fill:url(#linearGradient4510);fill-opacity:1;stroke:none"
           d="m 23.878934,49.134794 c 0.788455,-0.861786 3.030804,-3.412319 5.631824,-5.688141 2.743322,1.517559 12.041061,0.807513 13.347422,0.394227 2.137624,2.248156 3.634658,3.106323 5.237596,6.138688 1.301333,3.145001 -4.793797,1.901855 -12.164739,1.914821 -7.370942,0.01297 -15.396088,0.394227 -12.052103,-2.759595 z"
           id="path4340"
           inkscape:connector-curvature="0"
           sodipodi:nodetypes="cccczc" />
        <path
           style="fill:url(#linearGradient4512);fill-opacity:1;stroke:none"
           d="m 20,60 32,0 0,6 -32,0 z"
           id="path4342"
           inkscape:connector-curvature="0"
           sodipodi:nodetypes="ccccc" />
        <path
           sodipodi:nodetypes="ccccc"
           inkscape:connector-curvature="0"
           id="path4344"
           d="m 20,60 32,0 0,6 -32,0 z"
           style="fill:url(#linearGradient4514);fill-opacity:1;stroke:none" />
        <path
           style="fill:url(#linearGradient4516);fill-opacity:1;stroke:none"
           d="m 21.982302,12.026762 0.03982,2.603118 27.91593,0 0,-2.722802 z"
           id="path4346"
           inkscape:connector-curvature="0" />
      </g>
    </g>
  </g>
  <g
     inkscape:groupmode="layer"
     id="layer2"
     inkscape:label="Ebene"
     style="display:inline"
     sodipodi:insensitive="true">
    <g
       id="g4268"
       transform="translate(4.285714,72.142857)">
      <g
         transform="translate(49.714286,-65.142857)"
         style="display:none"
         inkscape:label="Ebene#2"
         id="layer4">
        <rect
           y="2.6541269e-016"
           x="0"
           height="72"
           width="72"
           id="rect3834"
           style="fill:#000000;fill-opacity:1;fill-rule:evenodd;stroke:none;display:inline" />
      </g>
      <g
         style="display:none"
         transform="translate(49.714286,-57.142857)"
         inkscape:label="Layer 1"
         id="layer1-0">
        <rect
           y="-1.5"
           x="6.5"
           height="59"
           width="59"
           id="rect2993"
           style="fill:none;stroke:#000000;stroke-width:1;stroke-opacity:1" />
        <rect
           y="0.5"
           x="8.5"
           height="55"
           width="55"
           id="rect2993-1"
           style="fill:none;stroke:#ff0c0c;stroke-width:1;stroke-opacity:1" />
      </g>
      <g
         transform="translate(49.714286,-65.142857)"
         style="display:inline"
         inkscape:label="Ebene#1"
         id="layer3">
        <path
           style="opacity:0.97000002;fill:#000000;fill-opacity:1;stroke:none;display:inline;filter:url(#filter4341-3)"
           d="m 20,8 32,0 0,6 -32,0 z"
           id="path4158"
           inkscape:connector-curvature="0"
           sodipodi:nodetypes="ccccc" />
        <path
           sodipodi:nodetypes="ccccc"
           inkscape:connector-curvature="0"
           id="path4160"
           d="m 20,62 32,0 0,6 -32,0 z"
           style="opacity:0.97000002;fill:#000000;fill-opacity:1;stroke:none;display:inline;filter:url(#filter4337-7)" />
        <path
           style="fill:#000000;fill-opacity:0.11618257;stroke:none;display:inline;filter:url(#filter4361-2)"
           d="m 22,14.079646 0,6 c 0.0023,4.438396 1.482696,6.020643 4.031391,8.615796 L 34,36 c 1.407358,1.534385 0.629279,2.756564 0,4 l -8.09361,8.09361 C 23.128312,50.728234 21.887364,51.907176 22,55.978163 L 22,62 l 27.920354,0 0,-6.134473 C 49.734003,52.073243 48.24391,50.653275 45.998441,48.051883 L 38,40 c -1.112022,-1.194331 -1.288189,-2.505643 0,-4 l 7.782618,-7.087029 c 3.199255,-3.055469 4.212457,-4.892681 4.225129,-8.913973 l -0.08739,-6.078644 z"
           id="path4162"
           inkscape:connector-curvature="0"
           sodipodi:nodetypes="ccccccccccccccccc" />
        <path
           style="fill:#000000;fill-opacity:0.48132779;stroke:none;display:inline;filter:url(#filter4353-2)"
           d="m 22.372421,61.905658 27.074993,0.112636 0,-2.379445 C 49.484854,58.367738 48.676629,57.5809 47.841009,57.117776 L 37.30307,50.369911 c -0.968204,-0.667161 -2.279187,-0.476217 -3.084442,0.08572 l -10.291406,6.748821 c -1.206706,0.86255 -1.679327,1.672172 -1.595878,2.88537 z"
           id="path4166"
           inkscape:connector-curvature="0"
           sodipodi:nodetypes="ccccccccc" />
        <path
           style="fill:#000000;fill-opacity:0.48132779;stroke:none;display:inline;filter:url(#filter4357-0)"
           d="m 26.469573,28.044316 c 2.457637,2.467288 5.04066,4.934576 7.709338,7.401864 0.58013,0.536352 1.522715,1.630226 1.871595,2.803745 0.318068,-1.256605 0.923932,-2.124016 1.457532,-2.600579 2.627635,-2.346763 5.434269,-4.872525 8.222372,-7.379757 0,0 -5.791712,0.601952 -9.686737,0.563183 -3.895025,-0.03877 -9.5741,-0.788456 -9.5741,-0.788456 z"
           id="path4168"
           inkscape:connector-curvature="0"
           sodipodi:nodetypes="cscsczc" />
      </g>
      <g
         transform="translate(49.714286,-65.142857)"
         style="display:inline"
         inkscape:label="Ebene"
         id="layer2-3">
        <path
           style="fill:url(#linearGradient3850-7);fill-opacity:1;stroke:none"
           d="m 20,6 32,0 0,6 -32,0 z"
           id="path3836"
           inkscape:connector-curvature="0"
           sodipodi:nodetypes="ccccc" />
        <path
           sodipodi:nodetypes="ccccc"
           inkscape:connector-curvature="0"
           id="path3002"
           d="m 20,6 32,0 0,6 -32,0 z"
           style="fill:url(#linearGradient3793-1);fill-opacity:1;stroke:none" />
        <path
           sodipodi:nodetypes="ccccccccccccccccc"
           inkscape:connector-curvature="0"
           id="path3006"
           d="m 22,12.079646 0,6 c 0.0023,4.438396 1.482696,6.020643 4.031391,8.615796 L 34,34 c 1.407358,1.534385 0.629279,2.756564 0,4 l -8.09361,8.09361 C 23.128312,48.728234 21.887364,49.907176 22,53.978163 L 22,60 l 27.920354,0 0,-6.134473 C 49.734003,50.073243 48.24391,48.653275 45.998441,46.051883 L 38,38 c -1.112022,-1.194331 -1.288189,-2.505643 0,-4 l 7.782618,-7.087029 c 3.199255,-3.055469 4.212457,-4.892681 4.225129,-8.913973 l -0.08739,-6.078644 z"
           style="fill:url(#linearGradient3811-0);fill-opacity:1;stroke:none" />
        <path
           inkscape:connector-curvature="0"
           id="path3859"
           d="m 35.902877,35.375032 0.253432,-0.06636 0,13.206628 -0.337909,-0.06636 z"
           style="fill:url(#linearGradient3867-4);fill-opacity:1;stroke:none" />
        <path
           sodipodi:nodetypes="ccccccccc"
           inkscape:connector-curvature="0"
           id="path3817"
           d="m 22.372421,59.905658 27.074993,0.112636 0,-2.379445 C 49.484854,56.367738 48.676629,55.5809 47.841009,55.117776 L 37.30307,48.369911 c -0.968204,-0.667161 -2.279187,-0.476217 -3.084442,0.08572 l -10.291406,6.748821 c -1.206706,0.86255 -1.679327,1.672172 -1.595878,2.88537 z"
           style="fill:url(#linearGradient3843-2);fill-opacity:1;stroke:none" />
        <path
           sodipodi:nodetypes="cscsczc"
           inkscape:connector-curvature="0"
           id="path3819"
           d="m 26.469573,26.044316 c 2.457637,2.467288 5.04066,4.934576 7.709338,7.401864 0.58013,0.536352 1.522715,1.630226 1.871595,2.803745 0.318068,-1.256605 0.923932,-2.124016 1.457532,-2.600579 2.627635,-2.346763 5.434269,-4.872525 8.222372,-7.379757 0,0 -5.791712,0.601952 -9.686737,0.563183 -3.895025,-0.03877 -9.5741,-0.788456 -9.5741,-0.788456 z"
           style="fill:url(#linearGradient3835-9);fill-opacity:1;stroke:none" />
        <path
           sodipodi:nodetypes="cscczsc"
           inkscape:connector-curvature="0"
           id="path3889"
           d="m 49.539823,21.185841 c 0.02522,2.432622 -4.018884,6.052421 -7.814889,9.276125 -1.882217,1.598447 -3.792399,3.558339 -4.769182,4.502635 -1.867816,1.372987 -2.627211,-1.021761 -3.640369,-1.642976 0,0 4.375645,-6.669455 5.631519,-7.715431 1.255875,-1.045975 2.33207,-2.366547 3.847573,-2.756971 1.181012,-0.304253 5.145,-0.771492 6.745348,-1.663382 z"
           style="fill:url(#radialGradient3905-9);fill-opacity:1;stroke:none" />
        <path
           style="fill:url(#radialGradient3919-1);fill-opacity:1;stroke:none"
           d="m 22.383046,21.185841 c 0.0638,2.388112 4.137457,5.984483 7.814889,9.304284 1.786598,1.612851 3.879766,3.527291 4.909978,4.418158 1.867816,1.372987 2.627211,-1.021761 3.640369,-1.642976 0,0 -4.45529,-6.278059 -5.432404,-7.642618 -0.977114,-1.364559 -1.797814,-2.400897 -4.469074,-2.970579 -3.757845,-0.801412 -3.006911,-0.397281 -6.463758,-1.466269 z"
           id="path3917"
           inkscape:connector-curvature="0"
           sodipodi:nodetypes="cscczsc" />
        <path
           sodipodi:nodetypes="cccczc"
           inkscape:connector-curvature="0"
           id="path3925"
           d="m 23.878934,49.134794 c 0.788455,-0.861786 3.030804,-3.412319 5.631824,-5.688141 2.743322,1.517559 12.041061,0.807513 13.347422,0.394227 2.137624,2.248156 3.634658,3.106323 5.237596,6.138688 1.301333,3.145001 -4.793797,1.901855 -12.164739,1.914821 -7.370942,0.01297 -15.396088,0.394227 -12.052103,-2.759595 z"
           style="fill:url(#linearGradient3933-5);fill-opacity:1;stroke:none" />
        <path
           sodipodi:nodetypes="ccccc"
           inkscape:connector-curvature="0"
           id="path3858"
           d="m 20,60 32,0 0,6 -32,0 z"
           style="fill:url(#linearGradient3860-2);fill-opacity:1;stroke:none" />
        <path
           style="fill:url(#linearGradient3856-0);fill-opacity:1;stroke:none"
           d="m 20,60 32,0 0,6 -32,0 z"
           id="path3854"
           inkscape:connector-curvature="0"
           sodipodi:nodetypes="ccccc" />
        <path
           inkscape:connector-curvature="0"
           id="path3070"
           d="m 21.982302,12.026762 0.03982,2.603118 27.91593,0 0,-2.722802 z"
           style="fill:url(#linearGradient3846-4);fill-opacity:1;stroke:none" />
      </g>
    </g>
    <text
       xml:space="preserve"
       style="font-size:22px;font-style:normal;font-weight:normal;line-height:125%;letter-spacing:0px;word-spacing:0px;fill:#000000;fill-opacity:1;stroke:#000287;stroke-opacity:1;filter:url(#filter4602);font-family:Bitstream Vera Sans"
       x="19.891113"
       y="101.28571"
       id="text4294"
       sodipodi:linespacing="125%"><tspan
         sodipodi:role="line"
         id="tspan4296"
         x="19.891113"
         y="101.28571">OI Countdown</tspan></text>
  </g>
</svg>
