<?xml version="1.0" encoding="UTF-8" standalone="no"?>
<!-- Created with Inkscape (http://www.inkscape.org/) -->

<svg
   xmlns:dc="http://purl.org/dc/elements/1.1/"
   xmlns:cc="http://creativecommons.org/ns#"
   xmlns:rdf="http://www.w3.org/1999/02/22-rdf-syntax-ns#"
   xmlns:svg="http://www.w3.org/2000/svg"
   xmlns="http://www.w3.org/2000/svg"
   xmlns:xlink="http://www.w3.org/1999/xlink"
   xmlns:sodipodi="http://sodipodi.sourceforge.net/DTD/sodipodi-0.dtd"
   xmlns:inkscape="http://www.inkscape.org/namespaces/inkscape"
   sodipodi:docname="512.svg"
   inkscape:export-ydpi="90"
   inkscape:export-xdpi="90"
   inkscape:export-filename="C:\Users\Mike\Desktop\news icon\512.png"
   inkscape:version="0.48.1 "
   version="1.1"
   id="svg2"
   height="512"
   width="512">
  <defs
     id="defs4">
    <linearGradient
       id="linearGradient5232">
      <stop
         id="stop5234"
         offset="0"
         style="stop-color:#afac9f;stop-opacity:1;" />
      <stop
         style="stop-color:#e0ded7;stop-opacity:1;"
         offset="0.41854069"
         id="stop5236" />
      <stop
         id="stop5238"
         offset="1"
         style="stop-color:#efeeea;stop-opacity:1;" />
    </linearGradient>
    <linearGradient
       id="linearGradient4943">
      <stop
         id="stop4945"
         offset="0"
         style="stop-color:#dfdcd3;stop-opacity:1;" />
      <stop
         style="stop-color:#e8e6e0;stop-opacity:1;"
         offset="0.59375054"
         id="stop4947" />
      <stop
         id="stop4949"
         offset="0.73809415"
         style="stop-color:#f6f5f2;stop-opacity:1;" />
      <stop
         style="stop-color:#ccc7b6;stop-opacity:1;"
         offset="1"
         id="stop4951" />
    </linearGradient>
    <linearGradient
       id="linearGradient4153">
      <stop
         style="stop-color:#dbd8ce;stop-opacity:1;"
         offset="0"
         id="stop4155" />
      <stop
         id="stop4157"
         offset="0.59375054"
         style="stop-color:#e8e6e0;stop-opacity:1;" />
      <stop
         style="stop-color:#efeee9;stop-opacity:1;"
         offset="0.78125054"
         id="stop4159" />
      <stop
         id="stop4161"
         offset="1"
         style="stop-color:#d8d4c7;stop-opacity:1;" />
    </linearGradient>
    <linearGradient
       id="linearGradient4131">
      <stop
         style="stop-color:#ffffff;stop-opacity:1;"
         offset="0"
         id="stop4133" />
      <stop
         id="stop4141"
         offset="0.2857146"
         style="stop-color:#ffffff;stop-opacity:0.07954545;" />
      <stop
         id="stop4139"
         offset="0.57142919"
         style="stop-color:#ffffff;stop-opacity:0.32514179;" />
      <stop
         style="stop-color:#ffffff;stop-opacity:0.59735352;"
         offset="1"
         id="stop4135" />
    </linearGradient>
    <linearGradient
       id="linearGradient3849">
      <stop
         id="stop3859"
         offset="0"
         style="stop-color:#dbd8ce;stop-opacity:1;" />
      <stop
         style="stop-color:#e8e6e0;stop-opacity:1;"
         offset="0.59375054"
         id="stop3861" />
      <stop
         id="stop3863"
         offset="0.78125054"
         style="stop-color:#efeee9;stop-opacity:1;" />
      <stop
         style="stop-color:#cfcaba;stop-opacity:1;"
         offset="0.93750054"
         id="stop3865" />
      <stop
         id="stop3857"
         offset="1"
         style="stop-color:#c3bca7;stop-opacity:1;" />
    </linearGradient>
    <linearGradient
       id="linearGradient3770">
      <stop
         style="stop-color:#a9a597;stop-opacity:1;"
         offset="0"
         id="stop3772" />
      <stop
         id="stop3824"
         offset="0.42857143"
         style="stop-color:#cbc8bc;stop-opacity:1;" />
      <stop
         style="stop-color:#e9e8e2;stop-opacity:1;"
         offset="1"
         id="stop3774" />
    </linearGradient>
    <filter
       id="filter3757"
       inkscape:label="filter1"
       color-interpolation-filters="sRGB">
      <feColorMatrix
         id="feColorMatrix3771"
         result="result3"
         in="SourceAlpha"
         type="matrix"
         values="1 0 0 0 0 0 1 0 0 0 0 0 1 0 0 0 0 0 1 0 " />
      <feGaussianBlur
         stdDeviation="1"
         id="feGaussianBlur3761"
         result="result1"
         in="result3" />
      <feOffset
         dx="0"
         dy="0.5"
         id="feOffset3765"
         result="result2" />
      <feComposite
         id="feComposite3763"
         in2="result2"
         in="SourceGraphic"
         operator="over" />
    </filter>
    <linearGradient
       inkscape:collect="always"
       xlink:href="#linearGradient3770"
       id="linearGradient3776"
       x1="4"
       y1="14"
       x2="1.6666666"
       y2="14"
       gradientUnits="userSpaceOnUse"
       gradientTransform="matrix(8.0113636,0,0,8.0113636,6.6477273,580.08947)" />
    <filter
       id="filter3117"
       inkscape:label="Inner Glow"
       inkscape:menu="Shadows and Glows"
       inkscape:menu-tooltip="Adds a colorizable glow inside"
       color-interpolation-filters="sRGB"
       x="-0.2"
       y="-0.2"
       width="1.4"
       height="1.4">
      <feGaussianBlur
         id="feGaussianBlur3119"
         stdDeviation="0.5 2"
         result="result8" />
      <feComposite
         id="feComposite3121"
         in2="result8"
         result="result6"
         in="SourceGraphic"
         operator="in" />
      <feComposite
         id="feComposite3123"
         in2="result6"
         operator="in"
         result="result11" />
      <feFlood
         id="feFlood3125"
         result="result10"
         in="result11"
         flood-opacity="1"
         flood-color="rgb(144,140,125)" />
      <feBlend
         id="feBlend3127"
         in2="result10"
         mode="normal"
         in="result11"
         result="result12" />
      <feComposite
         id="feComposite3129"
         in2="result12"
         result="result2"
         operator="in"
         in="result12" />
    </filter>
    <linearGradient
       inkscape:collect="always"
       xlink:href="#linearGradient3770-7"
       id="linearGradient3776-1"
       x1="3"
       y1="14"
       x2="1"
       y2="14"
       gradientUnits="userSpaceOnUse" />
    <linearGradient
       id="linearGradient3770-7">
      <stop
         style="stop-color:#a29c84;stop-opacity:1;"
         offset="0"
         id="stop3772-4" />
      <stop
         style="stop-color:#dedbd2;stop-opacity:1;"
         offset="1"
         id="stop3774-0" />
    </linearGradient>
    <linearGradient
       inkscape:collect="always"
       xlink:href="#linearGradient3849-2"
       id="linearGradient3855-3"
       x1="18"
       y1="1018.3622"
       x2="18"
       y2="1050.3622"
       gradientUnits="userSpaceOnUse" />
    <linearGradient
       id="linearGradient3849-2">
      <stop
         id="stop3859-8"
         offset="0"
         style="stop-color:#dbd8ce;stop-opacity:1;" />
      <stop
         style="stop-color:#e8e6e0;stop-opacity:1;"
         offset="0.59375054"
         id="stop3861-5" />
      <stop
         id="stop3863-5"
         offset="0.78125054"
         style="stop-color:#e8e6e0;stop-opacity:1;" />
      <stop
         style="stop-color:#d8d4c7;stop-opacity:1;"
         offset="0.93750054"
         id="stop3865-8" />
      <stop
         id="stop3857-8"
         offset="1"
         style="stop-color:#c8c2af;stop-opacity:1;" />
    </linearGradient>
    <linearGradient
       inkscape:collect="always"
       xlink:href="#linearGradient4131"
       id="linearGradient4149"
       x1="15.5"
       y1="1020.3622"
       x2="15.5"
       y2="1048.3622"
       gradientUnits="userSpaceOnUse"
       gradientTransform="matrix(1.387931,0,0,1.3870968,53.392241,-405.14827)" />
    <filter
       id="filter4885"
       inkscape:label="Inner Glow"
       inkscape:menu="Shadows and Glows"
       inkscape:menu-tooltip="Adds a colorizable glow inside"
       color-interpolation-filters="sRGB">
      <feGaussianBlur
         id="feGaussianBlur4887"
         stdDeviation="10"
         result="result8" />
      <feComposite
         id="feComposite4889"
         in2="result8"
         result="result6"
         in="SourceGraphic"
         operator="in" />
      <feComposite
         id="feComposite4891"
         in2="result6"
         operator="in"
         result="result11" />
      <feFlood
         id="feFlood4893"
         result="result10"
         in="result11"
         flood-opacity="1"
         flood-color="rgb(255,222,85)" />
      <feBlend
         id="feBlend4895"
         in2="result10"
         mode="normal"
         in="result11"
         result="result12" />
      <feComposite
         id="feComposite4897"
         result="result2"
         operator="in"
         in="result12"
         in2="result12" />
    </filter>
    <filter
       id="filter4901"
       inkscape:label="shadinggg"
       color-interpolation-filters="sRGB">
      <feGaussianBlur
         stdDeviation="1 15"
         id="feGaussianBlur4903"
         result="result1"
         in="SourceGraphic" />
      <feOffset
         dx="0"
         dy="-25"
         id="feOffset4923"
         result="result5" />
      <feComposite
         id="feComposite4905"
         in2="SourceGraphic"
         operator="in"
         result="result2" />
      <feFlood
         id="feFlood4913"
         result="result3"
         flood-opacity="1"
         flood-color="rgb(165,163,144)" />
      <feBlend
         blend="normal"
         id="feBlend4929"
         in2="result3"
         in="result2"
         result="result4"
         mode="normal" />
      <feComposite
         id="feComposite4939"
         in2="SourceGraphic"
         operator="in"
         result="result7" />
    </filter>
    <linearGradient
       inkscape:collect="always"
       xlink:href="#linearGradient4943"
       id="linearGradient4941"
       gradientUnits="userSpaceOnUse"
       gradientTransform="matrix(14.87069,0,0,14.109406,-15.107758,-13812.624)"
       x1="18.14031"
       y1="1020.5002"
       x2="18"
       y2="1050.3622" />
    <linearGradient
       inkscape:collect="always"
       xlink:href="#linearGradient3770-4"
       id="linearGradient3776-17"
       x1="4"
       y1="14"
       x2="1"
       y2="14"
       gradientUnits="userSpaceOnUse"
       gradientTransform="translate(1,1008.3622)" />
    <linearGradient
       id="linearGradient3770-4">
      <stop
         style="stop-color:#a6a193;stop-opacity:1;"
         offset="0"
         id="stop3772-0" />
      <stop
         id="stop3824-9"
         offset="0.66666669"
         style="stop-color:#cbc8bc;stop-opacity:1;" />
      <stop
         style="stop-color:#dbd8ce;stop-opacity:1;"
         offset="1"
         id="stop3774-4" />
    </linearGradient>
    <linearGradient
       id="linearGradient4943-8">
      <stop
         id="stop4945-2"
         offset="0"
         style="stop-color:#dbd8ce;stop-opacity:1;" />
      <stop
         style="stop-color:#e8e6e0;stop-opacity:1;"
         offset="0.59375054"
         id="stop4947-4" />
      <stop
         id="stop4949-5"
         offset="0.73809415"
         style="stop-color:#efeee9;stop-opacity:1;" />
      <stop
         style="stop-color:#bab39c;stop-opacity:1;"
         offset="1"
         id="stop4951-5" />
    </linearGradient>
    <filter
       inkscape:label="Shading 2"
       id="filter3918"
       color-interpolation-filters="sRGB">
      <feGaussianBlur
         in="SourceGraphic"
         result="result1"
         id="feGaussianBlur3920"
         stdDeviation="0.5" />
      <feComposite
         result="result2"
         operator="in"
         in2="SourceGraphic"
         id="feComposite3924" />
      <feFlood
         flood-color="rgb(130,126,112)"
         flood-opacity="1"
         result="result3"
         id="feFlood3926" />
      <feBlend
         mode="normal"
         result="result4"
         in="result2"
         in2="result3"
         id="feBlend3928"
         blend="normal" />
      <feComposite
         operator="in"
         in2="SourceGraphic"
         id="feComposite3930" />
    </filter>
    <linearGradient
       inkscape:collect="always"
       xlink:href="#linearGradient3770-78"
       id="linearGradient3776-16"
       x1="4"
       y1="14"
       x2="1"
       y2="14"
       gradientUnits="userSpaceOnUse"
       gradientTransform="matrix(1.5,0,0,1.5,2.5,985.3622)" />
    <linearGradient
       id="linearGradient3770-78">
      <stop
         style="stop-color:#a6a193;stop-opacity:1;"
         offset="0"
         id="stop3772-6" />
      <stop
         id="stop3824-5"
         offset="0.66666669"
         style="stop-color:#cbc8bc;stop-opacity:1;" />
      <stop
         style="stop-color:#dbd8ce;stop-opacity:1;"
         offset="1"
         id="stop3774-9" />
    </linearGradient>
    <linearGradient
       id="linearGradient4943-0">
      <stop
         id="stop4945-5"
         offset="0"
         style="stop-color:#dbd8ce;stop-opacity:1;" />
      <stop
         style="stop-color:#e8e6e0;stop-opacity:1;"
         offset="0.59375054"
         id="stop4947-46" />
      <stop
         id="stop4949-7"
         offset="0.73809415"
         style="stop-color:#f6f5f2;stop-opacity:1;" />
      <stop
         style="stop-color:#c2bca8;stop-opacity:1;"
         offset="1"
         id="stop4951-6" />
    </linearGradient>
    <filter
       id="filter4901-4"
       inkscape:label="Shading 1"
       color-interpolation-filters="sRGB">
      <feGaussianBlur
         stdDeviation="2"
         id="feGaussianBlur4903-0"
         result="result1"
         in="SourceGraphic" />
      <feOffset
         dx="0"
         dy="-3"
         id="feOffset3903" />
      <feComposite
         id="feComposite4905-8"
         in2="SourceGraphic"
         operator="in"
         result="result2" />
      <feFlood
         id="feFlood4913-8"
         result="result3"
         flood-opacity="1"
         flood-color="rgb(121,116,98)" />
      <feBlend
         blend="normal"
         id="feBlend4929-4"
         in2="result3"
         in="result2"
         result="result4"
         mode="normal" />
      <feComposite
         id="feComposite4939-9"
         in2="SourceGraphic"
         operator="in" />
    </filter>
    <linearGradient
       inkscape:collect="always"
       xlink:href="#linearGradient3770-47"
       id="linearGradient3776-4"
       x1="4"
       y1="14"
       x2="1"
       y2="14"
       gradientUnits="userSpaceOnUse"
       gradientTransform="matrix(1.5,0,0,1.5,0.5,985.3622)" />
    <linearGradient
       id="linearGradient3770-47">
      <stop
         style="stop-color:#bbb8ad;stop-opacity:1;"
         offset="0"
         id="stop3772-8" />
      <stop
         id="stop3824-8"
         offset="0.66666669"
         style="stop-color:#cbc8bc;stop-opacity:1;" />
      <stop
         style="stop-color:#e9e8e2;stop-opacity:1;"
         offset="1"
         id="stop3774-1" />
    </linearGradient>
    <linearGradient
       inkscape:collect="always"
       xlink:href="#linearGradient4943-4"
       id="linearGradient4941-3"
       gradientUnits="userSpaceOnUse"
       gradientTransform="matrix(2.0689655,0,0,1.9687543,-1.275862,-2038.905)"
       x1="18"
       y1="1018.3622"
       x2="18"
       y2="1050.3622" />
    <linearGradient
       id="linearGradient4943-4">
      <stop
         id="stop4945-3"
         offset="0"
         style="stop-color:#dbd8ce;stop-opacity:1;" />
      <stop
         style="stop-color:#e8e6e0;stop-opacity:1;"
         offset="0.59375054"
         id="stop4947-9" />
      <stop
         id="stop4949-6"
         offset="0.73809415"
         style="stop-color:#f6f5f2;stop-opacity:1;" />
      <stop
         style="stop-color:#c2bca8;stop-opacity:1;"
         offset="1"
         id="stop4951-67" />
    </linearGradient>
    <linearGradient
       y2="14"
       x2="1"
       y1="14"
       x1="4"
       gradientTransform="matrix(1.5,0,0,1.5,0.5,5)"
       gradientUnits="userSpaceOnUse"
       id="linearGradient3988"
       xlink:href="#linearGradient3770-47"
       inkscape:collect="always" />
    <linearGradient
       inkscape:collect="always"
       xlink:href="#linearGradient3770-6"
       id="linearGradient3776-5"
       x1="4"
       y1="14"
       x2="1.6666666"
       y2="14"
       gradientUnits="userSpaceOnUse"
       gradientTransform="matrix(1.5,0,0,1.5,1.5,963.3622)" />
    <linearGradient
       id="linearGradient3770-6">
      <stop
         style="stop-color:#bbb8ad;stop-opacity:1;"
         offset="0"
         id="stop3772-3" />
      <stop
         id="stop3824-93"
         offset="0.42857143"
         style="stop-color:#cbc8bc;stop-opacity:1;" />
      <stop
         style="stop-color:#e9e8e2;stop-opacity:1;"
         offset="1"
         id="stop3774-2" />
    </linearGradient>
    <linearGradient
       inkscape:collect="always"
       xlink:href="#linearGradient4943-07"
       id="linearGradient4941-2"
       gradientUnits="userSpaceOnUse"
       gradientTransform="matrix(2.7801724,0,0,2.6455136,-2.4331896,-2751.7473)"
       x1="18"
       y1="1018.3622"
       x2="18"
       y2="1050.3622" />
    <linearGradient
       id="linearGradient4943-07">
      <stop
         id="stop4945-8"
         offset="0"
         style="stop-color:#dbd8ce;stop-opacity:1;" />
      <stop
         style="stop-color:#e8e6e0;stop-opacity:1;"
         offset="0.59375054"
         id="stop4947-1" />
      <stop
         id="stop4949-4"
         offset="0.73809415"
         style="stop-color:#f6f5f2;stop-opacity:1;" />
      <stop
         style="stop-color:#c2bca8;stop-opacity:1;"
         offset="1"
         id="stop4951-8" />
    </linearGradient>
    <linearGradient
       y2="14"
       x2="1.6666666"
       y1="14"
       x1="4"
       gradientTransform="matrix(1.5,0,0,1.5,-2.5,-2)"
       gradientUnits="userSpaceOnUse"
       id="linearGradient3920"
       xlink:href="#linearGradient3770-6"
       inkscape:collect="always" />
    <linearGradient
       inkscape:collect="always"
       xlink:href="#linearGradient3770-6"
       id="linearGradient3989"
       gradientUnits="userSpaceOnUse"
       gradientTransform="matrix(1.5,0,0,1.5,1.5,7)"
       x1="4"
       y1="14"
       x2="1.6666666"
       y2="14" />
    <filter
       inkscape:collect="always"
       id="filter3996"
       color-interpolation-filters="sRGB">
      <feGaussianBlur
         inkscape:collect="always"
         stdDeviation="1.245"
         id="feGaussianBlur3998" />
    </filter>
    <linearGradient
       inkscape:collect="always"
       xlink:href="#linearGradient5232"
       id="linearGradient5230"
       gradientUnits="userSpaceOnUse"
       gradientTransform="matrix(7.9999999,0,0,7.9591838,8.666667,572.83158)"
       x1="3.0075798"
       y1="4.6785855"
       x2="1.8541667"
       y2="4.6397438" />
    <filter
       id="filter3130"
       inkscape:label="filter8" />
    <filter
       id="filter3131"
       inkscape:label="filter9" />
    <linearGradient
       inkscape:collect="always"
       xlink:href="#linearGradient4943-5"
       id="linearGradient4941-4"
       gradientUnits="userSpaceOnUse"
       gradientTransform="matrix(14.87069,0,0,14.109406,-15.107758,-14828.986)"
       x1="18.14031"
       y1="1020.5002"
       x2="18"
       y2="1050.3622" />
    <linearGradient
       id="linearGradient4943-5">
      <stop
         id="stop4945-6"
         offset="0"
         style="stop-color:#dfdcd3;stop-opacity:1;" />
      <stop
         style="stop-color:#e8e6e0;stop-opacity:1;"
         offset="0.59375054"
         id="stop4947-3" />
      <stop
         id="stop4949-64"
         offset="0.73809415"
         style="stop-color:#f6f5f2;stop-opacity:1;" />
      <stop
         style="stop-color:#ccc7b6;stop-opacity:1;"
         offset="1"
         id="stop4951-676" />
    </linearGradient>
    <filter
       id="filter4901-3"
       inkscape:label="shadinggg"
       color-interpolation-filters="sRGB">
      <feGaussianBlur
         stdDeviation="1 15"
         id="feGaussianBlur4903-9"
         result="result1"
         in="SourceGraphic" />
      <feOffset
         dx="0"
         dy="-25"
         id="feOffset4923-1"
         result="result5" />
      <feComposite
         id="feComposite4905-4"
         in2="SourceGraphic"
         operator="in"
         result="result2" />
      <feFlood
         id="feFlood4913-7"
         result="result3"
         flood-opacity="1"
         flood-color="rgb(165,163,144)" />
      <feBlend
         blend="normal"
         id="feBlend4929-5"
         in2="result3"
         in="result2"
         result="result4"
         mode="normal" />
      <feComposite
         id="feComposite4939-0"
         in2="SourceGraphic"
         operator="in"
         result="result7" />
    </filter>
    <linearGradient
       inkscape:collect="always"
       xlink:href="#linearGradient5232-5"
       id="linearGradient5230-0"
       gradientUnits="userSpaceOnUse"
       gradientTransform="matrix(7.9999999,0,0,7.9591838,8.666667,572.83158)"
       x1="3.0075798"
       y1="4.6785855"
       x2="1.8541667"
       y2="4.6397438" />
    <linearGradient
       id="linearGradient5232-5">
      <stop
         id="stop5234-5"
         offset="0"
         style="stop-color:#afac9f;stop-opacity:1;" />
      <stop
         style="stop-color:#e0ded7;stop-opacity:1;"
         offset="0.41854069"
         id="stop5236-8" />
      <stop
         id="stop5238-8"
         offset="1"
         style="stop-color:#efeeea;stop-opacity:1;" />
    </linearGradient>
    <filter
       id="filter4901-4-6"
       inkscape:label="Shading 1"
       color-interpolation-filters="sRGB">
      <feGaussianBlur
         stdDeviation="2"
         id="feGaussianBlur4903-0-9"
         result="result1"
         in="SourceGraphic" />
      <feOffset
         dx="0"
         dy="-3"
         id="feOffset3903-8" />
      <feComposite
         id="feComposite4905-8-1"
         in2="SourceGraphic"
         operator="in"
         result="result2" />
      <feFlood
         id="feFlood4913-8-5"
         result="result3"
         flood-opacity="1"
         flood-color="rgb(121,116,98)" />
      <feBlend
         blend="normal"
         id="feBlend4929-4-6"
         in2="result3"
         in="result2"
         result="result4"
         mode="normal" />
      <feComposite
         id="feComposite4939-9-0"
         in2="SourceGraphic"
         operator="in" />
    </filter>
    <linearGradient
       y2="4.6397438"
       x2="1.8541667"
       y1="4.6785855"
       x1="3.0075798"
       gradientTransform="matrix(7.9999999,0,0,7.9591838,8.666667,32.46938)"
       gradientUnits="userSpaceOnUse"
       id="linearGradient3942"
       xlink:href="#linearGradient5232-5"
       inkscape:collect="always" />
    <filter
       inkscape:collect="always"
       id="filter4010">
      <feGaussianBlur
         inkscape:collect="always"
         stdDeviation="8.4049217"
         id="feGaussianBlur4012" />
    </filter>
  </defs>
  <sodipodi:namedview
     id="base"
     pagecolor="#ffffff"
     bordercolor="#666666"
     borderopacity="1.0"
     inkscape:pageopacity="0.0"
     inkscape:pageshadow="2"
     inkscape:zoom="1"
     inkscape:cx="68.268079"
     inkscape:cy="277.7848"
     inkscape:document-units="px"
     inkscape:current-layer="layer2"
     showgrid="true"
     showborder="true"
     inkscape:showpageshadow="false"
     inkscape:window-width="1858"
     inkscape:window-height="1061"
     inkscape:window-x="58"
     inkscape:window-y="-4"
     inkscape:window-maximized="1"
     showguides="true"
     inkscape:guide-bbox="true">
    <inkscape:grid
       type="xygrid"
       id="grid2985"
       empspacing="4"
       visible="false"
       enabled="false"
       snapvisiblegridlinesonly="false"
       spacingx="0.5px"
       spacingy="0.5px"
       originy="-2.7755576e-017px" />
  </sodipodi:namedview>
  <metadata
     id="metadata7">
    <rdf:RDF>
      <cc:Work
         rdf:about="">
        <dc:format>image/svg+xml</dc:format>
        <dc:type
           rdf:resource="http://purl.org/dc/dcmitype/StillImage" />
        <dc:title></dc:title>
      </cc:Work>
    </rdf:RDF>
  </metadata>
  <g
     inkscape:groupmode="layer"
     id="layer2"
     inkscape:label="Shadow"
     style="opacity:0.35;display:inline"
     transform="translate(0,476)">
    <path
       style="fill:#000000;fill-opacity:1;stroke:none;display:inline;filter:url(#filter4010)"
       d="m 29.999812,-421.17181 c 0,0 0.354786,4.32614 0.6875,8.28125 l -3.4375,3.21875 -5.25,-3.5 c 10.631778,52.88766 14.178185,115.13629 15.375,174.3125 -0.985691,69.83638 -7.375,78.3105 -7.375,191.031248 0,32.25019 32.34375,42.6562503 64.6875,42.6562503 l 330.624998,0 c 32.34375,0 64.6875,-10.4060603 64.6875,-42.6562503 0,-136.166378 -10.01484,-120.102128 -7.1875,-243.999998 1.41701,-62.09529 7.1875,-129.34375 7.1875,-129.34375 l -3.59375,4 -3.59375,-4 -3.59375,4 -3.59375,-4 -3.59375,4 -3.59375,-4 -3.59375,4 -3.59375,-4 -3.59375,4 -3.59375,-4 -3.59375,4 -3.59375,-4 -3.59375,4 -3.59375,-4 -3.59375,4 -3.59375,-4 -3.59375,4 -3.59375,-4 -3.59375,4 -3.59375,-4 -3.59375,4 -3.59375,-4 -3.59375,4 -3.59375,-4 -3.59375,4 -3.59375,-4 -3.59375,4 -3.59375,-4 -3.59375,4 -3.59375,-4 -3.59375,4 -3.59375,-4 -3.59375,4 -3.59375,-4 -3.59375,4 -3.59375,-4 -3.59375,4 -3.59375,-4 -3.59375,4 -3.59375,-4 -3.59375,4 -3.59375,-4 -3.59375,4 -3.59375,-4 -3.59375,4 -3.59375,-4 -3.59375,4 -3.59375,-4 -3.59375,4 -3.59375,-4 -3.59375,4 -3.59375,-4 -3.59375,4 -3.59375,-4 -3.59375,4 -3.59375,-4 -3.59375,4 -3.59375,-4 -3.59375,4 -3.59375,-4 -3.59375,4 -3.59375,-4 -3.59375,4 -3.59375,-4 -3.59375,4 -3.59375,-4 -3.59375,4 -3.59375,-4 -3.59375,4 -3.59375,-4 -3.59375,4 -3.59375,-4 -3.59375,4 -3.59375,-4 -3.59375,4 -3.59375,-4 -3.59375,4 -3.59375,-4 -3.59375,4 -3.59375,-4 -3.59375,4 -3.59375,-4 -3.59375,4 -3.59375,-4 -3.59375,4 -3.59375,-4 -3.59375,4 -3.59375,-4 -3.59375,4 -3.59375,-4 -3.59375,4 -3.59375,-4 -3.59375,4 -3.59375,-4 -3.59375,4 -3.59375,-4 -3.59375,4 -3.59375,-4 -3.59375,4 -3.59375,-4 -3.59375,4 -3.59375,-4 -3.59375,4 -3.59375,-4 -3.59375,4 -3.59375,-4 -3.59375,4 -3.59375,-4 -3.593748,4 -3.59375,-4 -3.59375,4 -3.59375,-4 -3.59375,4 -3.59375,-4 -3.59375,4 -3.59375,-4 -3.59375,4 -3.59375,-4 -3.59375,4 -3.59375,-4 -3.59375,4 -3.59375,-4 -3.59375,4 -3.59375,-4 -3.59375,4 -3.59375,-4 -3.59375,4 -3.59375,-4 z"
       id="path3768-6"
       inkscape:connector-curvature="0" />
  </g>
  <g
     inkscape:label="Newspaper"
     inkscape:groupmode="layer"
     id="layer1"
     transform="translate(0,-540.3622)"
     style="display:inline"
     sodipodi:insensitive="true">
    <path
       style="fill:url(#linearGradient5230);fill-opacity:1;stroke:none;filter:url(#filter4901-4)"
       d="m 70,599.3622 -39,0 -3.75,3.5 -5.25,-3.5 c 16,79.59183 16,180.40817 16,260 l 32,0 z"
       id="path3768"
       inkscape:connector-curvature="0"
       sodipodi:nodetypes="ccccccc" />
    <path
       style="fill:url(#linearGradient4941);fill-opacity:1;fill-rule:nonzero;stroke:none;filter:url(#filter4901)"
       d="m 30,591.3622 3.59375,4 3.59375,-4 3.59375,4 3.59375,-4 3.59375,4 3.59375,-4 3.59375,4 3.59375,-4 3.59375,4 3.59375,-4 3.59375,4 3.59375,-4 3.59375,4 3.59375,-4 3.59375,4 3.59375,-4 3.59375,4 3.59375,-4 3.59375,4 3.59375,-4 3.59375,4 3.59375,-4 3.59375,4 3.59375,-4 3.59375,4 3.59375,-4 3.59375,4 3.59375,-4 3.59375,4 3.59375,-4 3.59375,4 3.59375,-4 3.59375,4 3.59375,-4 3.59375,4 3.59375,-4 3.59375,4 3.59375,-4 3.59375,4 3.59375,-4 3.59375,4 3.59375,-4 3.59375,4 3.59375,-4 3.59375,4 3.59375,-4 3.59375,4 3.59375,-4 3.59375,4 3.59375,-4 3.59375,4 3.59375,-4 3.59375,4 3.59375,-4 3.59375,4 3.59375,-4 3.59375,4 3.59375,-4 3.59375,4 3.59375,-4 3.59375,4 3.59375,-4 3.59375,4 3.59375,-4 3.59375,4 3.59375,-4 3.59375,4 3.59375,-4 3.59375,4 3.59375,-4 3.59375,4 3.59375,-4 3.59375,4 3.59375,-4 3.59375,4 3.59375,-4 3.59375,4 3.59375,-4 3.59375,4 3.59375,-4 3.59375,4 3.59375,-4 3.59375,4 3.59375,-4 3.59375,4 3.59375,-4 3.59375,4 3.59375,-4 3.59375,4 3.59375,-4 3.59375,4 3.59375,-4 3.59375,4 3.59375,-4 3.59375,4 3.59375,-4 3.59375,4 3.59375,-4 3.59375,4 3.59375,-4 3.59375,4 3.59375,-4 3.59375,4 3.59375,-4 3.59375,4 3.59375,-4 3.59375,4 3.59375,-4 3.59375,4 3.59375,-4 3.59375,4 3.59375,-4 3.59375,4 3.59375,-4 3.59375,4 3.59375,-4 3.59375,4 3.59375,-4 3.59375,4 3.59375,-4 3.59375,4 3.59375,-4 3.59375,4 3.59375,-4 3.59375,4 3.59375,-4 3.59375,4 3.59375,-4 c 0,0 -5.7705,67.23805 -7.18751,129.33334 C 479.98515,844.59341 490,828.52913 490,964.69551 c 0,32.25019 -32.34375,42.66669 -64.6875,42.66669 l -330.625,0 C 62.34375,1007.3622 30,996.9457 30,964.69551 30,828.52913 39.332014,844.59341 37.1875,720.69554 36.112592,658.59342 30,591.3622 30,591.3622 z"
       id="rect2987"
       inkscape:connector-curvature="0"
       sodipodi:nodetypes="cccccccccccccccccccccccccccccccccccccccccccccccccccccccccccccccccccccccccccccccccccccccccccccccccccccccccccccccccccccccccccccccccssssssc" />
  </g>
  <g
     inkscape:groupmode="layer"
     id="layer3"
     inkscape:label="Ink"
     style="opacity:0.481;display:inline"
     transform="translate(0,476)"
     sodipodi:insensitive="true">
    <g
       id="g3124"
       transform="translate(55.000002,-61.999998)">
      <g
         transform="matrix(15.515151,0,0,15.515151,-64.575757,-229.24242)"
         id="g4052">
        <path
           inkscape:connector-curvature="0"
           style="fill:#000000;fill-opacity:1;fill-rule:nonzero;stroke:none"
           d="M 5.2050886,5.0227876 5.1139381,7 C 10.084501,7 14,11.029437 14,16 l 2,0 C 16,9.9248678 11.280221,5.0227876 5.2050886,5.0227876 z"
           id="path3951-6-5-6"
           sodipodi:nodetypes="ccccc" />
        <path
           inkscape:connector-curvature="0"
           style="fill:#000000;fill-opacity:1;fill-rule:nonzero;stroke:none"
           d="M 5.0911505,8 5,10 c 3.3137085,0 6,2.686292 6,6 l 2,0 C 13,11.581722 9.5094285,8 5.0911505,8 z"
           id="path3951-6-5"
           sodipodi:nodetypes="ccccc" />
        <path
           sodipodi:type="arc"
           style="opacity:0.98000004;fill:#000000;fill-opacity:1;fill-rule:nonzero;stroke:none"
           id="path3951"
           sodipodi:cx="7"
           sodipodi:cy="14"
           sodipodi:rx="2"
           sodipodi:ry="2"
           d="m 9,14 a 2,2 0 1 1 -4,0 2,2 0 1 1 4,0 z" />
      </g>
      <path
         sodipodi:nodetypes="cccccccccccccccccccccccccccccccccccccccccccccccccc"
         inkscape:connector-curvature="0"
         id="rect3107"
         d="m 15.666667,-274.33334 0,5.33334 381.333333,0 0,-5.33334 z m 2.666666,32 0,5.33334 373.333337,0 0,-5.33334 z m 0,32 0,5.33334 373.333337,0 0,-5.33334 z m 0,32 0,5.33334 373.333337,0 0,-5.33334 z m 202.666667,32 0,5.33334 173.33333,0 0,-5.33334 z m 0,32 0,5.33334 173.33333,0 0,-5.33334 z m 0,32.000005 0,5.333333 173.33333,0 0,-5.333333 z m 0,32 0,5.333333 176,0 0,-5.333333 z m 0,32 0,5.333333 176,0 0,-5.333333 z m 0,32 0,5.333333 176,0 0,-5.333333 z"
         style="opacity:0.98000004;fill:#000000;fill-opacity:0.45882353;fill-rule:nonzero;stroke:none" />
    </g>
  </g>
</svg>
