<?xml version="1.0" encoding="UTF-8" standalone="no"?>
<!-- Created with Inkscape (http://www.inkscape.org/) -->

<svg
   xmlns:osb="http://www.openswatchbook.org/uri/2009/osb"
   xmlns:dc="http://purl.org/dc/elements/1.1/"
   xmlns:cc="http://creativecommons.org/ns#"
   xmlns:rdf="http://www.w3.org/1999/02/22-rdf-syntax-ns#"
   xmlns:svg="http://www.w3.org/2000/svg"
   xmlns="http://www.w3.org/2000/svg"
   xmlns:xlink="http://www.w3.org/1999/xlink"
   xmlns:sodipodi="http://sodipodi.sourceforge.net/DTD/sodipodi-0.dtd"
   xmlns:inkscape="http://www.inkscape.org/namespaces/inkscape"
   width="18"
   height="18"
   id="svg2"
   version="1.1"
   inkscape:version="0.48.2 r9819"
   sodipodi:docname="ic_menu_add_password.svg"
   inkscape:export-filename="D:\Dropbox\Current Projects\OpenIntents Icons\ic_menu_add_password-final\holo_light\drawable-xdpi\ic_menu_add_password.png"
   inkscape:export-xdpi="240"
   inkscape:export-ydpi="240">
  <defs
     id="defs4">
    <linearGradient
       id="linearGradient4105"
       osb:paint="solid">
      <stop
         style="stop-color:#ffffff;stop-opacity:1;"
         offset="0"
         id="stop4107" />
    </linearGradient>
    <linearGradient
       id="linearGradient4082"
       osb:paint="solid">
      <stop
         style="stop-color:#000000;stop-opacity:1;"
         offset="0"
         id="stop4084" />
    </linearGradient>
    <linearGradient
       inkscape:collect="always"
       xlink:href="#linearGradient4105"
       id="linearGradient4109"
       x1="29.40625"
       y1="320.28125"
       x2="638.9375"
       y2="320.28125"
       gradientUnits="userSpaceOnUse"
       gradientTransform="matrix(0.01352568,0,0,0.01340576,78.481771,662.86109)" />
    <linearGradient
       inkscape:collect="always"
       xlink:href="#linearGradient4105"
       id="linearGradient4111"
       x1="538.56207"
       y1="885.92749"
       x2="682.86261"
       y2="885.92749"
       gradientUnits="userSpaceOnUse" />
    <linearGradient
       inkscape:collect="always"
       xlink:href="#linearGradient4105"
       id="linearGradient3805"
       gradientUnits="userSpaceOnUse"
       x1="29.40625"
       y1="320.28125"
       x2="638.9375"
       y2="320.28125"
       gradientTransform="translate(-7.5202496e-7,-9.5547351e-6)" />
    <linearGradient
       inkscape:collect="always"
       xlink:href="#linearGradient4105"
       id="linearGradient3814"
       gradientUnits="userSpaceOnUse"
       gradientTransform="matrix(-0.49922136,0,0,-0.49479513,300.05441,835.64814)"
       x1="29.40625"
       y1="320.28125"
       x2="638.9375"
       y2="320.28125" />
    <linearGradient
       inkscape:collect="always"
       xlink:href="#linearGradient4105"
       id="linearGradient3021"
       gradientUnits="userSpaceOnUse"
       x1="538.56207"
       y1="885.92749"
       x2="682.86261"
       y2="885.92749" />
  </defs>
  <sodipodi:namedview
     id="base"
     pagecolor="#ffffff"
     bordercolor="#666666"
     borderopacity="1.0"
     inkscape:pageopacity="0.0"
     inkscape:pageshadow="2"
     inkscape:zoom="18.115534"
     inkscape:cx="5.2580877"
     inkscape:cy="6.3929491"
     inkscape:document-units="px"
     inkscape:current-layer="g3912"
     showgrid="false"
     inkscape:window-width="1280"
     inkscape:window-height="972"
     inkscape:window-x="-8"
     inkscape:window-y="-8"
     inkscape:window-maximized="1"
     showguides="true"
     inkscape:guide-bbox="true" />
  <metadata
     id="metadata7">
    <rdf:RDF>
      <cc:Work
         rdf:about="">
        <dc:format>image/svg+xml</dc:format>
        <dc:type
           rdf:resource="http://purl.org/dc/dcmitype/StillImage" />
        <dc:title></dc:title>
      </cc:Work>
    </rdf:RDF>
  </metadata>
  <g
     inkscape:label="plus"
     inkscape:groupmode="layer"
     id="layer1"
     transform="translate(0,-1034.3621)">
    <g
       id="g3924"
       transform="matrix(0.04677739,0,0,0.04678052,-13.942538,1007.543)"
       style="opacity:0.8;fill:url(#linearGradient4111);fill-opacity:1">
      <path
         style="fill:url(#linearGradient3021);fill-opacity:1"
         d="m 517.4375,429.875 0,105.34375 -101.09375,0.125 0.0312,20.59375 101.0625,-0.125 0,105.3125 19.75,0 0,-105.3125 101.09375,-0.125 -0.0312,-20.59375 -101.0625,0.125 0,-105.34375 -19.75,0 z"
         transform="matrix(0.65018542,0,0,0.62395881,267.86145,545.55797)"
         id="rect3775"
         inkscape:connector-curvature="0" />
    </g>
  </g>
  <g
     inkscape:groupmode="layer"
     id="layer2"
     inkscape:label="key shape"
     transform="translate(0,-1034.3621)">
    <g
       id="g3912"
       transform="matrix(2.1793356,0,0,2.1502856,-171.87207,-391.09408)"
       style="fill:#333333;fill-opacity:0.37647059">
      <path
         style="opacity:0.8;fill:url(#linearGradient4109);fill-opacity:1;stroke:none"
         d="m 84.616938,662.91513 c -1.384488,0 -2.506056,1.11451 -2.506056,2.49012 0,0.49469 0.395203,1.34351 0.395203,1.34351 l -3.641651,3.29053 0.01507,1.24649 0.87989,-0.19539 0.134811,-0.46056 0.590447,-0.0962 -0.07451,-0.57545 0.572047,0.0126 0.318862,-0.31417 -0.150071,-0.47504 0.998442,-0.0563 -0.05215,-0.52106 0.561071,-0.003 0.888051,-0.92695 c 0.347062,0.18065 0.651501,0.22164 1.070541,0.22164 1.38449,0 2.506897,-1.11536 2.506897,-2.49096 0,-1.3756 -1.122407,-2.49012 -2.506897,-2.49012 z m 0.75448,0.87934 c 0.393458,0 0.712635,0.31593 0.712635,0.70589 l 0,0.005 c -0.0029,0.38791 -0.321236,0.70087 -0.712635,0.70087 -0.393457,0 -0.712212,-0.31634 -0.712212,-0.70632 0,-0.38996 0.318755,-0.70589 0.712212,-0.70589 z"
         id="path3782"
         inkscape:connector-curvature="0"
         sodipodi:nodetypes="ssccccccccccccccssssscssss" />
    </g>
  </g>
</svg>
