<?xml version="1.0" encoding="UTF-8" standalone="no"?>
<!-- Created with Inkscape (http://www.inkscape.org/) -->

<svg
   xmlns:dc="http://purl.org/dc/elements/1.1/"
   xmlns:cc="http://creativecommons.org/ns#"
   xmlns:rdf="http://www.w3.org/1999/02/22-rdf-syntax-ns#"
   xmlns:svg="http://www.w3.org/2000/svg"
   xmlns="http://www.w3.org/2000/svg"
   xmlns:sodipodi="http://sodipodi.sourceforge.net/DTD/sodipodi-0.dtd"
   xmlns:inkscape="http://www.inkscape.org/namespaces/inkscape"
   width="48"
   height="48"
   id="svg2"
   version="1.1"
   inkscape:version="0.48.2 r9819"
   sodipodi:docname="ic_menu_colorpicker_light.svg"
   inkscape:export-filename="C:\Users\DeMon1ZeD\Desktop\color-picker-fix\light\xhdpi\ic_menu_colorpicker.png"
   inkscape:export-xdpi="11.656324"
   inkscape:export-ydpi="11.656324">
  <defs
     id="defs4" />
  <sodipodi:namedview
     id="base"
     pagecolor="#ffffff"
     bordercolor="#666666"
     borderopacity="1.0"
     inkscape:pageopacity="0.0"
     inkscape:pageshadow="2"
     inkscape:zoom="11.313709"
     inkscape:cx="27.516828"
     inkscape:cy="26.589549"
     inkscape:document-units="px"
     inkscape:current-layer="layer2"
     showgrid="false"
     inkscape:window-width="1920"
     inkscape:window-height="1138"
     inkscape:window-x="-8"
     inkscape:window-y="-8"
     inkscape:window-maximized="1"
     showguides="true"
     inkscape:guide-bbox="true"
     width="48px" />
  <metadata
     id="metadata7">
    <rdf:RDF>
      <cc:Work
         rdf:about="">
        <dc:format>image/svg+xml</dc:format>
        <dc:type
           rdf:resource="http://purl.org/dc/dcmitype/StillImage" />
        <dc:title></dc:title>
      </cc:Work>
    </rdf:RDF>
  </metadata>
  <g
     inkscape:groupmode="layer"
     id="layer2"
     inkscape:label="Layer"
     style="display:inline"
     transform="translate(0,-1004.3622)">
    <path
       style="opacity:0.6;fill:#333333;fill-opacity:1;stroke:none"
       d="m 27.626152,1010.7708 c -2.26596,0 -5.269962,0.3665 -9.219394,1.4096 -12.9907388,3.4688 -27.6426432,18.7824 -10.8761305,31.2592 8.4754535,5.5662 20.0307135,1.2923 20.0307135,1.2923 0,0 9.89362,-3.659 15.91115,-8.2311 6.610742,-5.0229 4.018296,-12.4113 4.018296,-12.4113 -1.150398,-3.6538 -3.742848,-4.7719 -3.742848,-4.7719 0,0 -2.268393,-1.2718 -6.675555,0.9642 -0.354858,0.1809 -7.165246,4.8431 -7.5181,0.4374 -0.0083,-2.0881 3.597022,-3.0704 3.597022,-3.0704 3.726644,-1.2557 0.866852,-5.1564 0.866852,-5.1564 0,0 -1.406896,-1.7281 -6.392006,-1.7216 z m -4.338298,6.3999 c 0.774886,0.018 1.333741,0.2376 1.454199,0.6401 0.214147,0.7156 -1.029914,1.7384 -2.778779,2.2846 -1.748866,0.5464 -3.34237,0.4118 -3.556516,-0.3038 -0.214148,-0.7156 1.029916,-1.7382 2.778782,-2.2845 0.765128,-0.239 1.499621,-0.3502 2.102314,-0.3364 z m -13.3794636,1.8189 c 0.086401,0 0.1711406,0.013 0.2511436,0.02 1.28002,0.1619 0.664316,1.0207 0.842545,1.3286 0.178231,0.3078 0.486085,1.1342 0.793939,1.3772 0.30785,0.243 0.518487,1.3934 0.162028,1.604 -0.356465,0.2107 -0.226841,0.2431 -0.61571,1.2963 -0.388867,1.0533 -2.2035801,0.6966 -2.2035801,0.6966 0,0 -6.0274414,1.9121 -5.1848973,-1.2152 0.8425478,-3.127 1.6040794,-1.6363 1.5392677,-2.3331 -0.06481,-0.6967 0.6365768,-1.3822 0.8303948,-1.5676 0.3493734,-0.3341 2.2889325,-1.2303 3.5848693,-1.2072 z m 30.9716536,7.7976 c 1.747209,-0.023 2.541206,1.1618 1.996995,2.4507 -0.544213,1.289 1.506073,1.524 0.858749,2.4749 0,0 -3.56474,5.3319 -6.736315,2.1064 -2.703879,-2.7497 0.858748,-5.683 0.858748,-5.683 0,0 1.274612,-1.326 3.021823,-1.349 z m -32.1017972,0.559 c 0.6175717,0.013 1.4562242,0.3282 1.5271132,1.9686 0.113415,2.6248 -0.9397648,1.1667 -1.0207786,3.03 -0.081016,1.8633 -1.1828035,2.0902 -1.2638173,2.1387 0,0 -2.2319379,0.048 -2.7990355,-0.1054 -0.5481853,-0.1488 -2.0294004,-0.6723 -2.2400351,-0.883 -0.2106373,-0.2106 -0.5833008,-1.4583 -0.2430424,-2.2685 0.3402581,-0.8099 0.3888654,-1.7335 0.7615315,-2.3493 0.372666,-0.6157 0.6157047,-1.1828 2.300798,-1.0369 1.6850899,0.1458 2.3170005,-0.389 2.3170005,-0.389 0,0 0.2897194,-0.1104 0.6602657,-0.1053 z m 24.4621752,4.626 c 2.01764,-0.064 1.304326,2.4628 1.304326,2.4628 1.863322,1.4582 0.684569,3.1392 0.5833,3.2729 -0.08359,0.1105 -2.252188,2.4142 -4.812232,1.847 -2.560042,-0.5671 -1.944335,-1.9766 -1.960537,-2.1548 -0.0162,-0.1783 0.583301,-1.1343 0.599502,-2.4143 0.01619,-1.28 1.814715,-2.7544 4.083106,-2.9975 0.07088,-0.013 0.13745,-0.014 0.202535,-0.017 z m -19.321841,1.2354 c 2.439828,-0.069 2.03558,2.2453 2.045607,2.3656 0.01143,0.1375 1.916059,1.2269 1.182803,2.155 -0.733257,0.9279 -0.299753,1.7419 -0.299753,1.7419 0,0 -0.103015,0.5019 -0.332157,0.7656 -0.229143,0.2633 -2.005795,1.3435 -4.354503,1.458 -2.3487047,0.1144 -3.0927695,-1.4206 -3.1271394,-1.535 -0.034367,-0.1143 0.1737233,-0.6789 0.2997526,-0.8508 0.1260268,-0.1718 -0.03391,-0.6538 -0.1255695,-0.8142 -0.091659,-0.1604 -0.093171,-2.2209 -0.093171,-2.5072 0,-0.2866 -0.2195861,-1.6261 3.5727203,-2.5886 0.474036,-0.1207 0.882865,-0.1805 1.231409,-0.1903 z m 9.94042,2.1103 c 0.477303,-0.018 1.238825,0.069 1.911929,0.6563 1.076971,0.9395 0.85065,1.993 0.85065,1.993 0,0 0.594653,3.2767 -1.421796,4.6744 -2.016454,1.3978 -3.001928,-0.1579 -3.208156,-0.1579 -0.206227,0 -0.824399,-0.3228 -1.259768,0.3646 -0.43537,0.6874 -1.946757,-1.582 -1.786358,-2.7505 0.1604,-1.1686 0.343649,-1.5901 1.251667,-2.7018 1.225909,-1.5009 3.191949,-2.0173 3.191949,-2.0173 0,0 0.183501,-0.05 0.469883,-0.061 z"
       id="path3006"
       inkscape:connector-curvature="0" />
  </g>
</svg>
