<?xml version="1.0" encoding="UTF-8" standalone="no"?>
<!-- Created with Inkscape (http://www.inkscape.org/) -->

<svg
   xmlns:dc="http://purl.org/dc/elements/1.1/"
   xmlns:cc="http://creativecommons.org/ns#"
   xmlns:rdf="http://www.w3.org/1999/02/22-rdf-syntax-ns#"
   xmlns:svg="http://www.w3.org/2000/svg"
   xmlns="http://www.w3.org/2000/svg"
   xmlns:xlink="http://www.w3.org/1999/xlink"
   xmlns:sodipodi="http://sodipodi.sourceforge.net/DTD/sodipodi-0.dtd"
   xmlns:inkscape="http://www.inkscape.org/namespaces/inkscape"
   width="72"
   height="72"
   id="svg2637"
   sodipodi:version="0.32"
   inkscape:version="0.48.0 r9654"
   sodipodi:docname="ic_menu_convert_csv_01d.svg"
   inkscape:output_extension="org.inkscape.output.svg.inkscape"
   version="1.1">
  <defs
     id="defs2639">
    <linearGradient
       inkscape:collect="always"
       xlink:href="#linearGradient3401"
       id="linearGradient3411"
       gradientUnits="userSpaceOnUse"
       x1="23.791174"
       y1="39.261162"
       x2="23.791174"
       y2="8.6079874" />
    <linearGradient
       inkscape:collect="always"
       xlink:href="#linearGradient3401"
       id="linearGradient3409"
       gradientUnits="userSpaceOnUse"
       x1="23.791174"
       y1="39.261162"
       x2="23.791174"
       y2="8.6079874" />
    <linearGradient
       inkscape:collect="always"
       xlink:href="#linearGradient3401"
       id="linearGradient3407"
       gradientUnits="userSpaceOnUse"
       x1="23.791174"
       y1="39.261162"
       x2="23.791174"
       y2="8.6079874" />
    <linearGradient
       id="linearGradient3401">
      <stop
         id="stop3403"
         offset="0"
         style="stop-color:#acacac;stop-opacity:1;" />
      <stop
         id="stop3405"
         offset="1"
         style="stop-color:#979797;stop-opacity:1;" />
    </linearGradient>
    <linearGradient
       inkscape:collect="always"
       xlink:href="#linearGradient3401"
       id="linearGradient3399"
       x1="23.791174"
       y1="39.261162"
       x2="23.791174"
       y2="8.6079874"
       gradientUnits="userSpaceOnUse" />
    <inkscape:perspective
       sodipodi:type="inkscape:persp3d"
       inkscape:vp_x="0 : 24 : 1"
       inkscape:vp_y="0 : 1000 : 0"
       inkscape:vp_z="48 : 24 : 1"
       inkscape:persp3d-origin="24 : 16 : 1"
       id="perspective2645" />
    <linearGradient
       inkscape:collect="always"
       xlink:href="#linearGradient3401"
       id="linearGradient3469"
       x1="34.670391"
       y1="22.050089"
       x2="34.917614"
       y2="46.229736"
       gradientUnits="userSpaceOnUse"
       gradientTransform="matrix(1.1231414,0,0,1.1231414,9.0446058,-17.495753)" />
    <linearGradient
       inkscape:collect="always"
       xlink:href="#linearGradient3401"
       id="linearGradient3477"
       x1="13.280887"
       y1="21.980467"
       x2="12.769876"
       y2="46.171932"
       gradientUnits="userSpaceOnUse"
       gradientTransform="matrix(1.1231414,0,0,1.1231414,9.0446058,-17.495753)" />
    <linearGradient
       inkscape:collect="always"
       xlink:href="#linearGradient3401"
       id="linearGradient3485"
       x1="24"
       y1="6.8789058"
       x2="24"
       y2="17.847492"
       gradientUnits="userSpaceOnUse"
       gradientTransform="matrix(1.2625777,0,0,1.2625777,5.6981327,-18.693454)" />
    <linearGradient
       inkscape:collect="always"
       xlink:href="#linearGradient3401"
       id="linearGradient3493"
       x1="6.4855661"
       y1="10.769379"
       x2="41.514435"
       y2="10.769379"
       gradientUnits="userSpaceOnUse" />
    <linearGradient
       inkscape:collect="always"
       xlink:href="#linearGradient3401"
       id="linearGradient3507"
       gradientUnits="userSpaceOnUse"
       gradientTransform="matrix(1.2220123,0,0,1.2220123,-5.3282944,-5.3691207)"
       x1="24"
       y1="6.8789058"
       x2="24"
       y2="18.547554" />
    <linearGradient
       inkscape:collect="always"
       xlink:href="#linearGradient3401-0"
       id="linearGradient3485-6"
       x1="24"
       y1="6.8789058"
       x2="24"
       y2="17.847492"
       gradientUnits="userSpaceOnUse"
       gradientTransform="matrix(1.2625777,0,0,1.2625777,5.6981338,5.3065456)" />
    <linearGradient
       id="linearGradient3401-0">
      <stop
         id="stop3403-9"
         offset="0"
         style="stop-color:#acacac;stop-opacity:1;" />
      <stop
         id="stop3405-0"
         offset="1"
         style="stop-color:#979797;stop-opacity:1;" />
    </linearGradient>
    <linearGradient
       inkscape:collect="always"
       xlink:href="#linearGradient3401-0"
       id="linearGradient3822"
       x1="24"
       y1="6.8789058"
       x2="24"
       y2="17.847492"
       gradientUnits="userSpaceOnUse"
       gradientTransform="matrix(1.2625777,0,0,1.2625777,5.6981327,-18.693454)" />
    <linearGradient
       id="linearGradient3824">
      <stop
         id="stop3826"
         offset="0"
         style="stop-color:#acacac;stop-opacity:1;" />
      <stop
         id="stop3828"
         offset="1"
         style="stop-color:#979797;stop-opacity:1;" />
    </linearGradient>
    <linearGradient
       inkscape:collect="always"
       xlink:href="#linearGradient3401-0"
       id="linearGradient3477-1"
       x1="13.280887"
       y1="21.980467"
       x2="12.769876"
       y2="46.171932"
       gradientUnits="userSpaceOnUse"
       gradientTransform="matrix(1.1231414,0,0,1.1231414,9.044607,6.5042466)" />
    <linearGradient
       id="linearGradient3831">
      <stop
         id="stop3833"
         offset="0"
         style="stop-color:#acacac;stop-opacity:1;" />
      <stop
         id="stop3835"
         offset="1"
         style="stop-color:#979797;stop-opacity:1;" />
    </linearGradient>
    <linearGradient
       inkscape:collect="always"
       xlink:href="#linearGradient3401-0"
       id="linearGradient3469-9"
       x1="34.670391"
       y1="22.050089"
       x2="34.917614"
       y2="46.229736"
       gradientUnits="userSpaceOnUse"
       gradientTransform="matrix(1.1231414,0,0,1.1231414,9.0446058,-17.495753)" />
    <linearGradient
       id="linearGradient3838">
      <stop
         id="stop3840"
         offset="0"
         style="stop-color:#acacac;stop-opacity:1;" />
      <stop
         id="stop3842"
         offset="1"
         style="stop-color:#979797;stop-opacity:1;" />
    </linearGradient>
    <linearGradient
       y2="46.229736"
       x2="34.917614"
       y1="22.050089"
       x1="34.670391"
       gradientTransform="matrix(1.1231414,0,0,1.1231414,9.044607,6.5042466)"
       gradientUnits="userSpaceOnUse"
       id="linearGradient3848"
       xlink:href="#linearGradient3401-0"
       inkscape:collect="always" />
    <filter
       inkscape:collect="always"
       id="filter3972">
      <feGaussianBlur
         inkscape:collect="always"
         stdDeviation="0.25535156"
         id="feGaussianBlur3974" />
    </filter>
    <filter
       inkscape:collect="always"
       id="filter3991">
      <feGaussianBlur
         inkscape:collect="always"
         stdDeviation="0.28382812"
         id="feGaussianBlur3993" />
    </filter>
  </defs>
  <sodipodi:namedview
     id="base"
     pagecolor="#ffffff"
     bordercolor="#666666"
     borderopacity="1.0"
     inkscape:pageopacity="0.0"
     inkscape:pageshadow="2"
     inkscape:zoom="4"
     inkscape:cx="52.522005"
     inkscape:cy="43.281676"
     inkscape:current-layer="layer4"
     showgrid="true"
     inkscape:grid-bbox="true"
     inkscape:document-units="px"
     inkscape:window-width="1131"
     inkscape:window-height="764"
     inkscape:window-x="87"
     inkscape:window-y="1"
     inkscape:window-maximized="0" />
  <metadata
     id="metadata2642">
    <rdf:RDF>
      <cc:Work
         rdf:about="">
        <dc:format>image/svg+xml</dc:format>
        <dc:type
           rdf:resource="http://purl.org/dc/dcmitype/StillImage" />
        <dc:title></dc:title>
      </cc:Work>
    </rdf:RDF>
  </metadata>
  <g
     inkscape:groupmode="layer"
     id="layer2"
     inkscape:label="Ebene"
     style="display:none"
     sodipodi:insensitive="true">
    <rect
       style="fill:none;stroke:#000000;stroke-width:1;stroke-opacity:1;display:inline"
       id="rect2993"
       width="59"
       height="59"
       x="6.5"
       y="6.5" />
    <rect
       style="fill:none;stroke:#ff0c0c;stroke-width:1;stroke-opacity:1;display:inline"
       id="rect2993-1"
       width="55"
       height="55"
       x="8.5"
       y="8.5" />
  </g>
  <g
     inkscape:groupmode="layer"
     id="layer3"
     inkscape:label="Ebene#1"
     sodipodi:insensitive="true"
     style="display:none">
    <rect
       style="fill:none;stroke:#000000;stroke-width:0.99999994;stroke-opacity:1;display:inline"
       id="rect2993-17"
       width="47"
       height="47"
       x="12.5"
       y="12.5" />
    <rect
       style="fill:none;stroke:#ff0c0c;stroke-width:1;stroke-opacity:1;display:inline"
       id="rect2993-1-4"
       width="43"
       height="43"
       x="14.5"
       y="14.5" />
  </g>
  <g
     id="layer1"
     inkscape:label="Layer 1"
     inkscape:groupmode="layer"
     transform="translate(0,24)"
     style="display:inline"
     sodipodi:insensitive="true">
    <path
       style="fill:url(#linearGradient3469);fill-opacity:1;fill-rule:evenodd;stroke:none"
       d="m 29.822723,7.3738077 -9.787377,10.5896183 29.522575,0 0,-4.813464 -19.735198,0 0,-5.7761543 z"
       id="path2647"
       sodipodi:nodetypes="cccccc"
       inkscape:connector-curvature="0" />
    <path
       sodipodi:nodetypes="cccccc"
       id="path2649"
       d="m 42.177276,34.008302 9.787376,-10.589619 -29.522574,0 0,4.813463 19.735198,0 0,5.776156 z"
       style="fill:url(#linearGradient3477);fill-opacity:1;fill-rule:evenodd;stroke:none"
       inkscape:connector-curvature="0" />
    <text
       xml:space="preserve"
       style="font-size:18.09583855px;font-style:normal;font-weight:normal;fill:url(#linearGradient3485);fill-opacity:1;stroke:none;font-family:Bitstream Vera Sans"
       x="17.002903"
       y="3.1659632"
       id="text2657"><tspan
         sodipodi:role="line"
         id="tspan2659"
         x="17.002903"
         y="3.1659632"
         style="fill:url(#linearGradient3485);fill-opacity:1;stroke:none">CSV</tspan></text>
  </g>
  <g
     inkscape:groupmode="layer"
     id="layer4"
     inkscape:label="Ebene#2"
     style="display:inline">
    <path
       style="fill:url(#linearGradient3848);fill-opacity:1;fill-rule:evenodd;stroke:none;display:inline"
       d="m 24.03125,14 c -1.142777,1.3e-5 -2.204927,0.259947 -3.15625,0.78125 -0.95133,0.521328 -1.672077,1.276919 -2.1875,2.28125 -0.515426,1.004352 -0.781251,2.182317 -0.78125,3.53125 -1e-6,1.237026 0.23098,2.390779 0.6875,3.46875 0.456517,1.077977 1.125247,1.900311 2,2.46875 0.874746,0.56844 2.010179,0.84375 3.40625,0.84375 1.348933,0 2.472585,-0.354483 3.40625,-1.09375 0.933644,-0.739265 1.578163,-1.8109 1.9375,-3.21875 l -1.6875,-0.4375 c -0.235633,1.089759 -0.709375,1.915039 -1.375,2.46875 -0.665643,0.553715 -1.477344,0.812501 -2.4375,0.8125 -0.789343,1e-6 -1.510089,-0.187299 -2.1875,-0.59375 -0.67742,-0.406447 -1.178967,-1.022012 -1.5,-1.84375 -0.321039,-0.82173 -0.500003,-1.773457 -0.5,-2.875 -3e-6,-0.854126 0.135281,-1.695929 0.40625,-2.5 0.270963,-0.804053 0.768916,-1.429103 1.4375,-1.90625 0.668575,-0.477125 1.473237,-0.718738 2.46875,-0.71875 0.865906,1.2e-5 1.584856,0.195 2.15625,0.625 0.571376,0.430022 1.012071,1.120018 1.3125,2.0625 L 29.125,17.75 C 28.777444,16.554224 28.164825,15.628506 27.28125,14.96875 26.397655,14.309019 25.327168,14.000013 24.03125,14 z m 11.90625,0 c -0.87181,1.3e-5 -1.662245,0.142984 -2.375,0.4375 -0.712762,0.294541 -1.253896,0.712822 -1.625,1.28125 -0.371108,0.568451 -0.562501,1.189907 -0.5625,1.84375 -1e-6,0.594957 0.165384,1.144927 0.46875,1.625 0.303362,0.480089 0.756487,0.863526 1.375,1.1875 0.477133,0.253301 1.3101,0.526813 2.5,0.8125 1.189889,0.285698 1.964949,0.489522 2.3125,0.625 0.541924,0.206175 0.920618,0.47789 1.15625,0.78125 0.235614,0.303369 0.374991,0.656054 0.375,1.0625 -9e-6,0.400562 -0.130551,0.755045 -0.375,1.09375 -0.244468,0.33871 -0.62431,0.618113 -1.125,0.8125 -0.500706,0.19439 -1.064903,0.281251 -1.71875,0.28125 -0.736327,1e-6 -1.410948,-0.118759 -2,-0.375 -0.589061,-0.256238 -1.032701,-0.584712 -1.3125,-1 C 32.751445,24.053468 32.576575,23.522967 32.5,22.875 L 30.90625,23 c 0.02356,0.865917 0.23687,1.657501 0.6875,2.34375 0.450627,0.686253 1.082715,1.189597 1.875,1.53125 0.792278,0.341653 1.765271,0.5 2.9375,0.5 0.924813,0 1.760725,-0.161292 2.5,-0.5 0.739257,-0.338707 1.324072,-0.796575 1.71875,-1.40625 0.394657,-0.609672 0.593739,-1.27955 0.59375,-1.96875 -1.1e-5,-0.695083 -0.203186,-1.310648 -0.5625,-1.84375 C 40.296915,21.123159 39.753984,20.6913 39,20.34375 c -0.518379,-0.235616 -1.481887,-0.497347 -2.875,-0.8125 -1.393125,-0.315138 -2.263882,-0.637073 -2.59375,-0.9375 -0.335766,-0.30041 -0.500003,-0.690886 -0.5,-1.15625 -3e-6,-0.536032 0.244556,-0.995047 0.71875,-1.375 0.474187,-0.37993 1.244504,-0.562488 2.28125,-0.5625 0.9955,1.2e-5 1.740458,0.206781 2.25,0.625 0.509526,0.418241 0.817882,1.05622 0.90625,1.875 l 1.625,-0.125 C 40.783036,17.115126 40.582158,16.413349 40.1875,15.8125 39.792822,15.211674 39.233367,14.778017 38.5,14.46875 37.766616,14.159508 36.897656,14.000013 35.9375,14 z m 6.3125,0.21875 5.03125,12.9375 1.75,0 5.0625,-12.9375 -1.75,0 -3.5,9.40625 c -0.265082,0.706872 -0.487227,1.418133 -0.6875,2.125 -0.182614,-0.659742 -0.416539,-1.371004 -0.6875,-2.125 l -3.375,-9.40625 -1.84375,0 z M 29.8125,31.375 l -9.78125,10.59375 29.53125,0 0,-4.8125 -19.75,0 0,-5.78125 z m -7.375,16.03125 0,4.8125 19.75,0 0,5.78125 9.78125,-10.59375 -29.53125,0 z"
       id="path2647-1"
       inkscape:connector-curvature="0" />
    <path
       sodipodi:type="inkscape:offset"
       inkscape:radius="-0.15356219"
       inkscape:original="M 24.03125 14 C 22.888473 14.000013 21.826323 14.259947 20.875 14.78125 C 19.92367 15.302578 19.202923 16.058169 18.6875 17.0625 C 18.172074 18.066852 17.906249 19.244817 17.90625 20.59375 C 17.90625 20.785842 17.92638 20.968146 17.9375 21.15625 C 17.9769 19.94177 18.213735 18.860671 18.6875 17.9375 C 19.202923 16.933169 19.92367 16.177578 20.875 15.65625 C 21.826323 15.134947 22.888473 14.875013 24.03125 14.875 C 25.327168 14.875013 26.397655 15.184019 27.28125 15.84375 C 27.951126 16.343939 28.451536 17.004787 28.8125 17.8125 L 29.125 17.75 C 28.777444 16.554224 28.164825 15.628506 27.28125 14.96875 C 26.397655 14.309019 25.327168 14.000013 24.03125 14 z M 35.9375 14 C 35.06569 14.000013 34.275255 14.142984 33.5625 14.4375 C 32.849738 14.732041 32.308604 15.150322 31.9375 15.71875 C 31.566392 16.287201 31.374999 16.908657 31.375 17.5625 C 31.375 17.700669 31.38875 17.835746 31.40625 17.96875 C 31.47747 17.491479 31.659169 17.020088 31.9375 16.59375 C 32.308604 16.025322 32.849738 15.607041 33.5625 15.3125 C 34.275255 15.017984 35.06569 14.875013 35.9375 14.875 C 36.897656 14.875013 37.766616 15.034508 38.5 15.34375 C 39.233367 15.653017 39.792822 16.086674 40.1875 16.6875 C 40.425912 17.050472 40.585591 17.447806 40.6875 17.875 L 40.8125 17.875 C 40.783036 17.115126 40.582158 16.413349 40.1875 15.8125 C 39.792822 15.211674 39.233367 14.778017 38.5 14.46875 C 37.766616 14.159508 36.897656 14.000013 35.9375 14 z M 42.25 14.21875 L 42.59375 15.09375 L 44.09375 15.09375 L 47.46875 24.5 C 47.739711 25.253996 47.973636 25.965258 48.15625 26.625 C 48.356523 25.918133 48.578668 25.206872 48.84375 24.5 L 52.34375 15.09375 L 53.75 15.09375 L 54.09375 14.21875 L 52.34375 14.21875 L 48.84375 23.625 C 48.578668 24.331872 48.356523 25.043133 48.15625 25.75 C 47.973636 25.090258 47.739711 24.378996 47.46875 23.625 L 44.09375 14.21875 L 42.25 14.21875 z M 33.09375 17.875 C 33.05216 18.018737 33.03125 18.155497 33.03125 18.3125 C 33.031247 18.777864 33.195484 19.16834 33.53125 19.46875 C 33.861118 19.769177 34.731875 20.091112 36.125 20.40625 C 37.518113 20.721403 38.481621 20.983134 39 21.21875 C 39.753984 21.5663 40.296915 21.998159 40.65625 22.53125 C 40.925736 22.931076 41.11351 23.383645 41.1875 23.875 C 41.20151 23.74724 41.21875 23.629393 41.21875 23.5 C 41.218739 22.804917 41.015564 22.189352 40.65625 21.65625 C 40.296915 21.123159 39.753984 20.6913 39 20.34375 C 38.481621 20.108134 37.518113 19.846403 36.125 19.53125 C 34.731875 19.216112 33.861118 18.894177 33.53125 18.59375 C 33.307406 18.393477 33.167283 18.150835 33.09375 17.875 z M 19.6875 21.09375 C 19.6814 21.221439 19.65625 21.340418 19.65625 21.46875 C 19.656247 22.570293 19.835211 23.52202 20.15625 24.34375 C 20.477283 25.165488 20.97883 25.781053 21.65625 26.1875 C 22.333661 26.593951 23.054407 26.781251 23.84375 26.78125 C 24.803906 26.781251 25.615607 26.522465 26.28125 25.96875 C 26.946875 25.415039 27.420617 24.589759 27.65625 23.5 L 29.09375 23.875 C 29.19014 23.617058 29.27086 23.348078 29.34375 23.0625 L 27.65625 22.625 C 27.420617 23.714759 26.946875 24.540039 26.28125 25.09375 C 25.615607 25.647465 24.803906 25.906251 23.84375 25.90625 C 23.054407 25.906251 22.333661 25.718951 21.65625 25.3125 C 20.97883 24.906053 20.477283 24.290488 20.15625 23.46875 C 19.884647 22.773557 19.733388 21.987031 19.6875 21.09375 z M 32.5 22.875 L 30.90625 23 C 30.91455 23.303904 30.97418 23.590748 31.03125 23.875 L 32.5 23.75 C 32.57657 24.397967 32.751445 24.928468 33.03125 25.34375 C 33.311049 25.759038 33.754689 26.087512 34.34375 26.34375 C 34.932802 26.599991 35.607423 26.718751 36.34375 26.71875 C 36.997597 26.718751 37.561794 26.63189 38.0625 26.4375 C 38.56319 26.243113 38.943032 25.96371 39.1875 25.625 C 39.431949 25.286295 39.562491 24.931812 39.5625 24.53125 C 39.562496 24.362694 39.54487 24.212881 39.5 24.0625 C 39.4412 24.29999 39.343859 24.533351 39.1875 24.75 C 38.943032 25.08871 38.56319 25.368113 38.0625 25.5625 C 37.561794 25.75689 36.997597 25.843751 36.34375 25.84375 C 35.607423 25.843751 34.932802 25.724991 34.34375 25.46875 C 33.754689 25.212512 33.311049 24.884038 33.03125 24.46875 C 32.751445 24.053468 32.576575 23.522967 32.5 22.875 z M 29.8125 31.375 L 20.03125 41.96875 L 20.84375 41.96875 L 29.8125 32.25 L 29.8125 31.375 z M 29.8125 37.15625 L 29.8125 38.03125 L 49.5625 38.03125 L 49.5625 37.15625 L 29.8125 37.15625 z M 22.4375 47.40625 L 22.4375 48.28125 L 51.15625 48.28125 L 51.96875 47.40625 L 22.4375 47.40625 z "
       style="fill:#787878;fill-opacity:1;fill-rule:evenodd;stroke:none;display:inline;filter:url(#filter3972)"
       id="path3954"
       d="m 24.03125,14.15625 c -1.119492,1.3e-5 -2.165805,0.241507 -3.09375,0.75 -0.925157,0.506985 -1.621843,1.238321 -2.125,2.21875 -0.169575,0.330432 -0.292359,0.692736 -0.40625,1.0625 0.04747,-0.107636 0.102921,-0.208584 0.15625,-0.3125 0.527689,-1.028233 1.272497,-1.808079 2.25,-2.34375 0.974701,-0.534113 2.052688,-0.812487 3.21875,-0.8125 1.320328,1.3e-5 2.430931,0.318449 3.34375,1 0.65564,0.489559 1.134932,1.137205 1.5,1.90625 l 0.03125,0 c -0.346872,-1.086829 -0.90491,-1.923564 -1.71875,-2.53125 -0.854371,-0.637911 -1.884742,-0.937487 -3.15625,-0.9375 z m 11.90625,0 c -0.855023,1.3e-5 -1.620568,0.151588 -2.3125,0.4375 -0.690691,0.28542 -1.209901,0.678666 -1.5625,1.21875 -0.21516,0.329575 -0.351382,0.671669 -0.4375,1.03125 0.05813,-0.112242 0.117494,-0.236517 0.1875,-0.34375 0.389609,-0.596772 0.952667,-1.040088 1.6875,-1.34375 0.733578,-0.30312 1.548903,-0.437487 2.4375,-0.4375 0.977161,1.3e-5 1.869019,0.14998 2.625,0.46875 0.75496,0.318373 1.337378,0.778107 1.75,1.40625 0.08574,0.130532 0.15175,0.267719 0.21875,0.40625 -0.09905,-0.389768 -0.251102,-0.762391 -0.46875,-1.09375 -0.376734,-0.573509 -0.913226,-0.981089 -1.625,-1.28125 -0.710787,-0.299714 -1.556849,-0.468737 -2.5,-0.46875 z M 42.5,14.375 l 0.21875,0.5625 1.375,0 a 0.15357754,0.15357754 0 0 1 0.03125,0 0.15357754,0.15357754 0 0 1 0.03125,0 l -0.1875,-0.5625 -1.46875,0 z m 9.96875,0 -0.21875,0.59375 a 0.15357754,0.15357754 0 0 1 0.03125,0 0.15357754,0.15357754 0 0 1 0.03125,-0.03125 0.15357754,0.15357754 0 0 1 0.03125,0 l 1.28125,0 0.21875,-0.5625 -1.375,0 z m -19.25,4.0625 c 0.0276,0.366559 0.133783,0.662473 0.40625,0.90625 0.270782,0.246614 1.146646,0.593039 2.53125,0.90625 1.396097,0.315828 2.361615,0.5962 2.90625,0.84375 0.772452,0.356063 1.340829,0.783085 1.71875,1.34375 0.07664,0.113713 0.124061,0.253083 0.1875,0.375 -0.08593,-0.383734 -0.219881,-0.739626 -0.4375,-1.0625 -0.340749,-0.505517 -0.858234,-0.942213 -1.59375,-1.28125 -0.492123,-0.223682 -1.453621,-0.466772 -2.84375,-0.78125 -1.401646,-0.317065 -2.267296,-0.61451 -2.65625,-0.96875 -0.08975,-0.08029 -0.152071,-0.18819 -0.21875,-0.28125 z m -5.4375,4.375 c -0.0453,0.186074 -0.09681,0.360265 -0.15625,0.53125 a 0.15357754,0.15357754 0 0 1 0.03125,0 0.15357754,0.15357754 0 0 1 0.03125,0 l 1.28125,0.34375 c 0.05821,-0.166083 0.138743,-0.321257 0.1875,-0.5 l -1.375,-0.375 z m 4.59375,0.21875 -1.28125,0.125 c 0.01623,0.188125 0.02534,0.374788 0.0625,0.5625 L 32.5,23.59375 c -0.04932,-0.180819 -0.09608,-0.360165 -0.125,-0.5625 z m -5,0.8125 c -0.259989,0.5442 -0.582546,1.027734 -1,1.375 -0.694743,0.577922 -1.543501,0.843751 -2.53125,0.84375 -0.813635,1e-6 -1.580479,-0.204533 -2.28125,-0.625 -0.585792,-0.351471 -1.014454,-0.8555 -1.34375,-1.5 0.03614,0.10917 0.05284,0.239046 0.09375,0.34375 0.310765,0.795455 0.790061,1.392791 1.4375,1.78125 0.654051,0.392435 1.328699,0.562501 2.09375,0.5625 0.932563,1e-6 1.707207,-0.251742 2.34375,-0.78125 0.555167,-0.461824 0.936982,-1.130796 1.1875,-2 z m 5.40625,0.46875 c 0.09155,0.361519 0.201488,0.679976 0.375,0.9375 0.258736,0.384025 0.679097,0.68916 1.25,0.9375 0.56564,0.246057 1.217685,0.375001 1.9375,0.375 0.640247,1e-6 1.177437,-0.09536 1.65625,-0.28125 0.478837,-0.185903 0.838755,-0.440001 1.0625,-0.75 0.182821,-0.253315 0.274779,-0.503533 0.3125,-0.78125 -0.01982,0.03096 -0.04057,0.06337 -0.0625,0.09375 -0.265191,0.367421 -0.664957,0.672129 -1.1875,0.875 -0.522599,0.20289 -1.113803,0.281251 -1.78125,0.28125 -0.752839,1e-6 -1.450036,-0.108575 -2.0625,-0.375 -0.607219,-0.264136 -1.074138,-0.615949 -1.375,-1.0625 -0.04952,-0.07349 -0.08188,-0.170177 -0.125,-0.25 z m 15.3125,1.59375 c 0.01879,0.06076 0.04443,0.127467 0.0625,0.1875 0.01856,-0.06215 0.04351,-0.125298 0.0625,-0.1875 a 0.15357754,0.15357754 0 0 1 -0.03125,0 0.15357754,0.15357754 0 0 1 -0.03125,0 0.15357754,0.15357754 0 0 1 -0.03125,0 0.15357754,0.15357754 0 0 1 -0.03125,0 z m -18.4375,5.875 -9.28125,10.03125 0.40625,0 8.875,-9.625 0,-0.40625 z m 0.3125,5.53125 0,0.5625 19.4375,0 0,-0.5625 -19.4375,0 z m -7.375,10.25 0,0.5625 28.5,0 0.53125,-0.5625 -29.03125,0 z" />
    <path
       sodipodi:type="inkscape:offset"
       inkscape:radius="-0.067710437"
       inkscape:original="M 42.40625 14.3125 L 47.34375 27.0625 L 48.96875 27.0625 L 53.9375 14.3125 L 53.84375 14.3125 L 49.125 26.40625 A 0.10356642 0.10356642 0 0 1 49.125 26.4375 A 0.10356642 0.10356642 0 0 1 49.09375 26.46875 A 0.10356642 0.10356642 0 0 1 49.0625 26.46875 A 0.10356642 0.10356642 0 0 1 49.03125 26.46875 L 47.28125 26.46875 A 0.10356642 0.10356642 0 0 1 47.25 26.46875 A 0.10356642 0.10356642 0 0 1 47.21875 26.46875 A 0.10356642 0.10356642 0 0 1 47.1875 26.4375 A 0.10356642 0.10356642 0 0 1 47.1875 26.40625 L 42.5 14.3125 L 42.40625 14.3125 z M 23.96875 14.78125 C 22.989992 14.781262 22.212551 15.036095 21.5625 15.5 C 20.908934 15.966429 20.420138 16.56069 20.15625 17.34375 C 20.091424 17.536115 20.080343 17.7411 20.03125 17.9375 C 20.318199 17.175515 20.790893 16.555212 21.4375 16.09375 C 22.124599 15.603405 22.956482 15.375012 23.96875 15.375 C 24.850201 15.375012 25.594777 15.553949 26.1875 16 C 26.760101 16.430944 27.195953 17.125094 27.5 18.03125 L 29 17.6875 C 28.940687 17.507401 28.856162 17.329173 28.78125 17.15625 L 27.46875 17.46875 A 0.10356642 0.10356642 0 0 1 27.4375 17.46875 A 0.10356642 0.10356642 0 0 1 27.40625 17.46875 A 0.10356642 0.10356642 0 0 1 27.375 17.46875 A 0.10356642 0.10356642 0 0 1 27.34375 17.4375 A 0.10356642 0.10356642 0 0 1 27.34375 17.40625 C 27.047779 16.477753 26.611792 15.819651 26.0625 15.40625 C 25.512435 14.992301 24.819111 14.781262 23.96875 14.78125 z M 36.03125 14.8125 C 35.00666 14.812512 34.256611 15.019168 33.8125 15.375 C 33.374994 15.725556 33.142433 16.115879 33.125 16.59375 C 33.258381 16.369102 33.46043 16.150692 33.6875 15.96875 C 34.191763 15.564722 34.982348 15.406262 36.03125 15.40625 C 37.041089 15.406262 37.808886 15.592247 38.34375 16.03125 C 38.610554 16.250254 38.842138 16.548596 39 16.875 C 38.872425 16.24952 38.629236 15.774445 38.21875 15.4375 C 37.73453 15.040065 37.012411 14.812512 36.03125 14.8125 z M 40.59375 17.1875 L 39.1875 17.3125 A 0.10356642 0.10356642 0 0 1 39.15625 17.3125 C 39.212928 17.498156 39.222379 17.697364 39.25 17.90625 L 40.71875 17.78125 C 40.70252 17.573616 40.639577 17.393111 40.59375 17.1875 z M 31.5 17.9375 C 31.552781 18.373552 31.707051 18.760318 31.9375 19.125 C 32.229288 19.586772 32.674072 19.963213 33.28125 20.28125 C 33.741564 20.525622 34.564022 20.809005 35.75 21.09375 C 36.940835 21.379675 37.699156 21.577116 38.0625 21.71875 C 38.6177 21.929976 39.031021 22.209098 39.28125 22.53125 C 39.361586 22.634688 39.414052 22.758184 39.46875 22.875 C 39.468742 22.492227 39.31765 22.163286 39.09375 21.875 C 38.872715 21.590432 38.528648 21.326124 38 21.125 C 37.668242 20.995678 36.876443 20.785471 35.6875 20.5 C 34.493678 20.213371 33.650202 19.94973 33.15625 19.6875 C 32.526402 19.357589 32.064936 18.967156 31.75 18.46875 C 31.644964 18.302531 31.571898 18.119217 31.5 17.9375 z M 18.28125 22.78125 C 18.388056 23.208518 18.515887 23.626024 18.6875 24.03125 C 19.13723 25.093202 19.79954 25.880786 20.65625 26.4375 C 21.509475 26.991955 22.617543 27.28125 24 27.28125 C 25.330791 27.28125 26.429156 26.911667 27.34375 26.1875 C 28.235853 25.481127 28.859228 24.467723 29.21875 23.125 L 29.1875 23.125 C 28.80307 24.152778 28.228679 24.992033 27.46875 25.59375 C 26.516014 26.348117 25.367075 26.6875 24 26.6875 C 22.590315 26.6875 21.427517 26.426175 20.53125 25.84375 C 19.638454 25.263586 18.963304 24.406502 18.5 23.3125 C 18.425813 23.137323 18.3426 22.960775 18.28125 22.78125 z M 31.125 23.84375 C 31.227303 24.364438 31.399425 24.842551 31.6875 25.28125 C 32.126492 25.949784 32.723285 26.446311 33.5 26.78125 C 34.274653 27.115302 35.243347 27.28125 36.40625 27.28125 C 37.319023 27.28125 38.151281 27.112831 38.875 26.78125 C 39.60093 26.448649 40.149078 25.996606 40.53125 25.40625 C 40.819615 24.96078 41.021546 24.49279 41.09375 24 C 40.996809 24.253432 40.870623 24.515385 40.71875 24.75 C 40.311566 25.378994 39.690084 25.842687 38.9375 26.1875 C 38.182669 26.533335 37.343103 26.6875 36.40625 26.6875 C 35.224695 26.6875 34.247403 26.536754 33.4375 26.1875 C 32.629645 25.839133 31.962262 25.328972 31.5 24.625 C 31.340477 24.382067 31.22455 24.111821 31.125 23.84375 z M 20.78125 41.28125 L 20.25 41.875 L 49.46875 41.875 L 49.46875 41.28125 L 20.78125 41.28125 z M 51.28125 47.5 L 42.28125 57.21875 L 42.28125 57.25 L 42.28125 57.78125 L 51.75 47.5 L 51.28125 47.5 z M 22.53125 51.53125 L 22.53125 52.125 L 42.09375 52.125 L 42.09375 51.53125 L 22.53125 51.53125 z "
       style="fill:#e5e5e5;fill-opacity:1;fill-rule:evenodd;stroke:none;display:inline;filter:url(#filter3991)"
       id="path3985"
       d="m 23.96875,14.84375 c -0.967006,1.2e-5 -1.736184,0.262862 -2.375,0.71875 -0.644424,0.459905 -1.115882,1.043594 -1.375,1.8125 0.289189,-0.526194 0.694555,-0.991951 1.1875,-1.34375 0.700041,-0.499581 1.540048,-0.718738 2.5625,-0.71875 0.890614,1.2e-5 1.64246,0.167799 2.25,0.625 0.357381,0.268968 0.654255,0.672696 0.90625,1.125 -0.283726,-0.718844 -0.635693,-1.249013 -1.09375,-1.59375 -0.537057,-0.40416 -1.223341,-0.624988 -2.0625,-0.625 z m 12.0625,0.03125 c -1.015486,1.2e-5 -1.762437,0.22193 -2.1875,0.5625 -0.320628,0.256906 -0.505364,0.531121 -0.59375,0.84375 0.112291,-0.133334 0.266176,-0.262764 0.40625,-0.375 0.524472,-0.42022 1.319279,-0.562488 2.375,-0.5625 1.018152,1.2e-5 1.791572,0.171786 2.34375,0.625 0.137631,0.112973 0.292362,0.259743 0.40625,0.40625 C 38.644121,16.016579 38.460825,15.724357 38.1875,15.5 37.719001,15.115468 37.001942,14.875012 36.03125,14.875 z M 28.75,17.25 l -1.25,0.28125 -0.03125,-0.0625 0,-0.0625 c 0.0053,-2.5e-5 -0.03658,0 -0.03125,0 0.0053,0 -0.03658,-2.5e-5 -0.03125,0 a 0.06771721,0.06771721 0 0 1 0,0.03125 0.06771721,0.06771721 0 0 1 -0.03125,0.03125 0.06771721,0.06771721 0 0 1 -0.03125,0 c 0.07236,0.163282 0.125835,0.319869 0.1875,0.5 l 1.375,-0.3125 C 28.858304,17.523722 28.808309,17.38244 28.75,17.25 z m 11.78125,0 -1.28125,0.125 c 0.03433,0.148226 0.0444,0.315749 0.0625,0.46875 l 1.34375,-0.125 c -0.01951,-0.154359 -0.08583,-0.305697 -0.125,-0.46875 z M 31.75,18.5625 c 0.07007,0.178149 0.144445,0.36421 0.25,0.53125 0.284066,0.449552 0.712736,0.810846 1.3125,1.125 0.449959,0.238875 1.285778,0.528477 2.46875,0.8125 1.19137,0.286054 1.939293,0.479521 2.3125,0.625 0.56329,0.214304 0.989236,0.508035 1.25,0.84375 -0.06106,-0.205511 -0.176471,-0.418604 -0.3125,-0.59375 -0.212613,-0.273725 -0.543153,-0.521164 -1.0625,-0.71875 -0.320924,-0.125099 -1.124258,-0.339697 -2.3125,-0.625 C 34.460303,20.275361 33.630548,20.018386 33.125,19.75 32.517482,19.431785 32.070703,19.039022 31.75,18.5625 z m -13.0625,5.25 c 0.0245,0.06322 0.03599,0.12491 0.0625,0.1875 0.445109,1.05104 1.091886,1.825496 1.9375,2.375 0.839789,0.545724 1.939489,0.84375 3.3125,0.84375 1.318255,0 2.4098,-0.379001 3.3125,-1.09375 0.636828,-0.504244 1.138024,-1.166931 1.5,-2 C 28.467761,24.731626 28.015325,25.248212 27.5,25.65625 26.534242,26.420927 25.378281,26.75 24,26.75 c -1.418053,0 -2.589056,-0.251787 -3.5,-0.84375 -0.768735,-0.499546 -1.359949,-1.217231 -1.8125,-2.09375 z m 12.78125,0.875 c 0.08053,0.188631 0.166131,0.387189 0.28125,0.5625 0.431981,0.657857 1.015298,1.138452 1.78125,1.46875 0.763293,0.329153 1.718539,0.5 2.875,0.5 0.904444,0 1.723758,-0.17299 2.4375,-0.5 0.716543,-0.3283 1.25031,-0.764951 1.625,-1.34375 0.12184,-0.188221 0.22573,-0.398177 0.3125,-0.59375 -0.416014,0.642635 -1.051851,1.120242 -1.8125,1.46875 -0.765188,0.35058 -1.618219,0.5 -2.5625,0.5 -1.187314,0 -2.178415,-0.145709 -3,-0.5 -0.80353,-0.346502 -1.468102,-0.864927 -1.9375,-1.5625 z M 47.1875,26.46875 47.21875,26.5 a 0.06771721,0.06771721 0 0 1 0,-0.03125 0.06771721,0.06771721 0 0 1 -0.03125,0 z m 1.90625,0 a 0.06771721,0.06771721 0 0 1 0,0.03125 L 49.125,26.46875 a 0.06771721,0.06771721 0 0 1 -0.03125,0 z m -1.875,0.0625 0.1875,0.46875 1.5,0 0.1875,-0.46875 a 0.06771721,0.06771721 0 0 1 -0.03125,0 0.06771721,0.06771721 0 0 1 -0.03125,0 l -1.75,0 a 0.06771721,0.06771721 0 0 1 -0.03125,0 0.06771721,0.06771721 0 0 1 -0.03125,0 z m -26.40625,14.8125 -0.40625,0.46875 29,0 0,-0.46875 -28.59375,0 z m 30.5,6.21875 -8.96875,9.65625 0,0.03125 0,0.375 9.25,-10.0625 -0.28125,0 z m -28.71875,4.03125 0,0.46875 19.4375,0 0,-0.46875 -19.4375,0 z" />
  </g>
</svg>
